<mxfile host="app.diagrams.net" modified="2024-04-04T04:07:48.195Z" agent="Mozilla/5.0 (Windows NT 10.0; Win64; x64) AppleWebKit/537.36 (KHTML, like Gecko) Chrome/123.0.0.0 Safari/537.36" etag="1J_H8uqUUNk4HhztXZlD" version="24.2.1" type="github">
  <diagram name="Page-1" id="3hnWcMC6TxYtz2lpOWJF">
    <mxGraphModel dx="1434" dy="1839" grid="1" gridSize="10" guides="1" tooltips="1" connect="1" arrows="1" fold="1" page="1" pageScale="1" pageWidth="850" pageHeight="1100" math="0" shadow="0">
      <root>
        <mxCell id="0" />
        <mxCell id="1" parent="0" />
        <UserObject label="" plantUmlData="{&#xa;  &quot;data&quot;: &quot;@startuml\nleft to right direction\nactor Customer as cust\nactor Admin as admin\n\nrectangle \&quot;E-commerce Platform\&quot; {\n  cust --&gt; (Browse Products)\n  cust --&gt; (Add to Cart)\n  cust --&gt; (Checkout)\n  cust --&gt; (View Order History)\n  \n  admin --&gt; (Add Product)\n  admin --&gt; (Manage Inventory)\n  admin --&gt; (Manage Orders)\n}\n@enduml\n&quot;,&#xa;  &quot;format&quot;: &quot;svg&quot;&#xa;}" id="ke1pgu3JhG9WEocOsTO3-1">
          <mxCell style="shape=image;noLabel=1;verticalAlign=top;aspect=fixed;imageAspect=0;image=data:image/svg+xml,PD94bWwgdmVyc2lvbj0iMS4wIiBlbmNvZGluZz0idXMtYXNjaWkiIHN0YW5kYWxvbmU9Im5vIj8+PHN2ZyB4bWxucz0iaHR0cDovL3d3dy53My5vcmcvMjAwMC9zdmciIHhtbG5zOnhsaW5rPSJodHRwOi8vd3d3LnczLm9yZy8xOTk5L3hsaW5rIiBjb250ZW50U3R5bGVUeXBlPSJ0ZXh0L2NzcyIgaGVpZ2h0PSI0OTdweCIgcHJlc2VydmVBc3BlY3RSYXRpbz0ibm9uZSIgc3R5bGU9IndpZHRoOjMwOXB4O2hlaWdodDo0OTdweDtiYWNrZ3JvdW5kOiNGRkZGRkY7IiB2ZXJzaW9uPSIxLjEiIHZpZXdCb3g9IjAgMCAzMDkgNDk3IiB3aWR0aD0iMzA5cHgiIHpvb21BbmRQYW49Im1hZ25pZnkiPjxkZWZzLz48Zz48IS0tY2x1c3RlciBFLWNvbW1lcmNlIFBsYXRmb3JtLS0+PGcgaWQ9ImNsdXN0ZXJfRS1jb21tZXJjZSBQbGF0Zm9ybSI+PHJlY3QgZmlsbD0ibm9uZSIgaGVpZ2h0PSI0ODQiIHJ4PSIyLjUiIHJ5PSIyLjUiIHN0eWxlPSJzdHJva2U6IzE4MTgxODtzdHJva2Utd2lkdGg6MS4wOyIgd2lkdGg9IjE5NiIgeD0iMTA3IiB5PSI3Ii8+PHRleHQgZmlsbD0iIzAwMDAwMCIgZm9udC1mYW1pbHk9InNhbnMtc2VyaWYiIGZvbnQtc2l6ZT0iMTQiIGZvbnQtd2VpZ2h0PSJib2xkIiBsZW5ndGhBZGp1c3Q9InNwYWNpbmciIHRleHRMZW5ndGg9IjEzNiIgeD0iMTM3IiB5PSIyMi4yMzQ0Ij5FLWNvbW1lcmNlIFBsYXRmb3JtPC90ZXh0PjwvZz48ZyBpZD0iZWxlbV9Ccm93c2UgUHJvZHVjdHMiPjxlbGxpcHNlIGN4PSIyMDQuODg3OSIgY3k9IjU2Ljk3NzYiIGZpbGw9IiNGMUYxRjEiIHJ4PSI3Mi44ODc5IiByeT0iMTYuOTc3NiIgc3R5bGU9InN0cm9rZTojMTgxODE4O3N0cm9rZS13aWR0aDowLjU7Ii8+PHRleHQgZmlsbD0iIzAwMDAwMCIgZm9udC1mYW1pbHk9InNhbnMtc2VyaWYiIGZvbnQtc2l6ZT0iMTQiIGxlbmd0aEFkanVzdD0ic3BhY2luZyIgdGV4dExlbmd0aD0iMTA2IiB4PSIxNTEuODg3OSIgeT0iNjAuNzE5OCI+QnJvd3NlIFByb2R1Y3RzPC90ZXh0PjwvZz48ZyBpZD0iZWxlbV9BZGQgdG8gQ2FydCI+PGVsbGlwc2UgY3g9IjIwNS4xNjg1IiBjeT0iMTI0LjEzMzciIGZpbGw9IiNGMUYxRjEiIHJ4PSI2MS4xNjg1IiByeT0iMTQuNjMzNyIgc3R5bGU9InN0cm9rZTojMTgxODE4O3N0cm9rZS13aWR0aDowLjU7Ii8+PHRleHQgZmlsbD0iIzAwMDAwMCIgZm9udC1mYW1pbHk9InNhbnMtc2VyaWYiIGZvbnQtc2l6ZT0iMTQiIGxlbmd0aEFkanVzdD0ic3BhY2luZyIgdGV4dExlbmd0aD0iNzciIHg9IjE2Ni42Njg1IiB5PSIxMjcuODc1OSI+QWRkIHRvIENhcnQ8L3RleHQ+PC9nPjxnIGlkPSJlbGVtX0NoZWNrb3V0Ij48ZWxsaXBzZSBjeD0iMjA1LjA4MzMiIGN5PSIxODcuMDk1NiIgZmlsbD0iI0YxRjFGMSIgcng9IjUxLjA4MzMiIHJ5PSIxMy41OTU2IiBzdHlsZT0ic3Ryb2tlOiMxODE4MTg7c3Ryb2tlLXdpZHRoOjAuNTsiLz48dGV4dCBmaWxsPSIjMDAwMDAwIiBmb250LWZhbWlseT0ic2Fucy1zZXJpZiIgZm9udC1zaXplPSIxNCIgbGVuZ3RoQWRqdXN0PSJzcGFjaW5nIiB0ZXh0TGVuZ3RoPSI1NiIgeD0iMTc3LjA4MzMiIHk9IjE5MC44Mzc3Ij5DaGVja291dDwvdGV4dD48L2c+PGcgaWQ9ImVsZW1fVmlldyBPcmRlciBIaXN0b3J5Ij48ZWxsaXBzZSBjeD0iMjA0Ljk1MyIgY3k9IjI1NC43OTA2IiBmaWxsPSIjRjFGMUYxIiByeD0iODEuOTUzIiByeT0iMTguNzkwNiIgc3R5bGU9InN0cm9rZTojMTgxODE4O3N0cm9rZS13aWR0aDowLjU7Ii8+PHRleHQgZmlsbD0iIzAwMDAwMCIgZm9udC1mYW1pbHk9InNhbnMtc2VyaWYiIGZvbnQtc2l6ZT0iMTQiIGxlbmd0aEFkanVzdD0ic3BhY2luZyIgdGV4dExlbmd0aD0iMTI3IiB4PSIxNDEuNDUzIiB5PSIyNTguNTMyOCI+VmlldyBPcmRlciBIaXN0b3J5PC90ZXh0PjwvZz48ZyBpZD0iZWxlbV9BZGQgUHJvZHVjdCI+PGVsbGlwc2UgY3g9IjIwNS4xNjg1IiBjeT0iMzI0LjEzMzciIGZpbGw9IiNGMUYxRjEiIHJ4PSI2MS4xNjg1IiByeT0iMTQuNjMzNyIgc3R5bGU9InN0cm9rZTojMTgxODE4O3N0cm9rZS13aWR0aDowLjU7Ii8+PHRleHQgZmlsbD0iIzAwMDAwMCIgZm9udC1mYW1pbHk9InNhbnMtc2VyaWYiIGZvbnQtc2l6ZT0iMTQiIGxlbmd0aEFkanVzdD0ic3BhY2luZyIgdGV4dExlbmd0aD0iNzciIHg9IjE2Ni42Njg1IiB5PSIzMjcuODc1OSI+QWRkIFByb2R1Y3Q8L3RleHQ+PC9nPjxnIGlkPSJlbGVtX01hbmFnZSBJbnZlbnRvcnkiPjxlbGxpcHNlIGN4PSIyMDQuOTM4NCIgY3k9IjM5MC45ODc3IiBmaWxsPSIjRjFGMUYxIiByeD0iNzUuNDM4NCIgcnk9IjE3LjQ4NzciIHN0eWxlPSJzdHJva2U6IzE4MTgxODtzdHJva2Utd2lkdGg6MC41OyIvPjx0ZXh0IGZpbGw9IiMwMDAwMDAiIGZvbnQtZmFtaWx5PSJzYW5zLXNlcmlmIiBmb250LXNpemU9IjE0IiBsZW5ndGhBZGp1c3Q9InNwYWNpbmciIHRleHRMZW5ndGg9IjExMiIgeD0iMTQ4LjkzODQiIHk9IjM5NC43Mjk5Ij5NYW5hZ2UgSW52ZW50b3J5PC90ZXh0PjwvZz48ZyBpZD0iZWxlbV9NYW5hZ2UgT3JkZXJzIj48ZWxsaXBzZSBjeD0iMjA1LjE4MzQiIGN5PSI0NTkuMjM2NyIgZmlsbD0iI0YxRjFGMSIgcng9IjY2LjY4MzQiIHJ5PSIxNS43MzY3IiBzdHlsZT0ic3Ryb2tlOiMxODE4MTg7c3Ryb2tlLXdpZHRoOjAuNTsiLz48dGV4dCBmaWxsPSIjMDAwMDAwIiBmb250LWZhbWlseT0ic2Fucy1zZXJpZiIgZm9udC1zaXplPSIxNCIgbGVuZ3RoQWRqdXN0PSJzcGFjaW5nIiB0ZXh0TGVuZ3RoPSI5MSIgeD0iMTU5LjY4MzQiIHk9IjQ2Mi45Nzg5Ij5NYW5hZ2UgT3JkZXJzPC90ZXh0PjwvZz48IS0tZW50aXR5IGN1c3QtLT48ZyBpZD0iZWxlbV9jdXN0Ij48ZWxsaXBzZSBjeD0iMzQuNSIgY3k9IjEyNyIgZmlsbD0iI0YxRjFGMSIgcng9IjgiIHJ5PSI4IiBzdHlsZT0ic3Ryb2tlOiMxODE4MTg7c3Ryb2tlLXdpZHRoOjAuNTsiLz48cGF0aCBkPSJNMzQuNSwxMzUgTDM0LjUsMTYyIE0yMS41LDE0MyBMNDcuNSwxNDMgTTM0LjUsMTYyIEwyMS41LDE3NyBNMzQuNSwxNjIgTDQ3LjUsMTc3ICIgZmlsbD0ibm9uZSIgc3R5bGU9InN0cm9rZTojMTgxODE4O3N0cm9rZS13aWR0aDowLjU7Ii8+PHRleHQgZmlsbD0iIzAwMDAwMCIgZm9udC1mYW1pbHk9InNhbnMtc2VyaWYiIGZvbnQtc2l6ZT0iMTQiIGxlbmd0aEFkanVzdD0ic3BhY2luZyIgdGV4dExlbmd0aD0iNTciIHg9IjYiIHk9IjE5MS43MzQ0Ij5DdXN0b21lcjwvdGV4dD48L2c+PCEtLWVudGl0eSBhZG1pbi0tPjxnIGlkPSJlbGVtX2FkbWluIj48ZWxsaXBzZSBjeD0iMzQuNSIgY3k9IjM2MiIgZmlsbD0iI0YxRjFGMSIgcng9IjgiIHJ5PSI4IiBzdHlsZT0ic3Ryb2tlOiMxODE4MTg7c3Ryb2tlLXdpZHRoOjAuNTsiLz48cGF0aCBkPSJNMzQuNSwzNzAgTDM0LjUsMzk3IE0yMS41LDM3OCBMNDcuNSwzNzggTTM0LjUsMzk3IEwyMS41LDQxMiBNMzQuNSwzOTcgTDQ3LjUsNDEyICIgZmlsbD0ibm9uZSIgc3R5bGU9InN0cm9rZTojMTgxODE4O3N0cm9rZS13aWR0aDowLjU7Ii8+PHRleHQgZmlsbD0iIzAwMDAwMCIgZm9udC1mYW1pbHk9InNhbnMtc2VyaWYiIGZvbnQtc2l6ZT0iMTQiIGxlbmd0aEFkanVzdD0ic3BhY2luZyIgdGV4dExlbmd0aD0iMzYiIHg9IjE2LjUiIHk9IjQyNi43MzQ0Ij5BZG1pbjwvdGV4dD48L2c+PCEtLWxpbmsgY3VzdCB0byBCcm93c2UgUHJvZHVjdHMtLT48ZyBpZD0ibGlua19jdXN0X0Jyb3dzZSBQcm9kdWN0cyI+PHBhdGggZD0iTTYzLDEyMi41MyBDNzMuMzYsMTExLjYgODUuODMsMTAwLjE3IDk5LDkyIEMxMTUuMjQsODEuOTIgMTI4Ljk4MzQsNzYuMTM4MiAxNDYuNzMzNCw3MC42OTgyICIgZmlsbD0ibm9uZSIgaWQ9ImN1c3QtdG8tQnJvd3NlIFByb2R1Y3RzIiBzdHlsZT0ic3Ryb2tlOiMxODE4MTg7c3Ryb2tlLXdpZHRoOjEuMDsiLz48cG9seWdvbiBmaWxsPSIjMTgxODE4IiBwb2ludHM9IjE1Mi40Nyw2OC45NCwxNDIuNjkzLDY3Ljc1MjgsMTQ3LjY4OTUsNzAuNDA1MSwxNDUuMDM3Miw3NS40MDE3LDE1Mi40Nyw2OC45NCIgc3R5bGU9InN0cm9rZTojMTgxODE4O3N0cm9rZS13aWR0aDoxLjA7Ii8+PC9nPjwhLS1saW5rIGN1c3QgdG8gQWRkIHRvIENhcnQtLT48ZyBpZD0ibGlua19jdXN0X0FkZCB0byBDYXJ0Ij48cGF0aCBkPSJNNjMuMzIsMTUwLjcyIEM4OC42NiwxNDUuOTEgMTIwLjY4NTIsMTM5LjgxODYgMTUwLjc3NTIsMTM0LjEwODYgIiBmaWxsPSJub25lIiBpZD0iY3VzdC10by1BZGQgdG8gQ2FydCIgc3R5bGU9InN0cm9rZTojMTgxODE4O3N0cm9rZS13aWR0aDoxLjA7Ii8+PHBvbHlnb24gZmlsbD0iIzE4MTgxOCIgcG9pbnRzPSIxNTYuNjcsMTMyLjk5LDE0Ny4wODIsMTMwLjczODEsMTUxLjc1NzcsMTMzLjkyMjIsMTQ4LjU3MzUsMTM4LjU5NzgsMTU2LjY3LDEzMi45OSIgc3R5bGU9InN0cm9rZTojMTgxODE4O3N0cm9rZS13aWR0aDoxLjA7Ii8+PC9nPjwhLS1saW5rIGN1c3QgdG8gQ2hlY2tvdXQtLT48ZyBpZD0ibGlua19jdXN0X0NoZWNrb3V0Ij48cGF0aCBkPSJNNjMuMzIsMTYxLjEyIEM5MC4zNCwxNjYuMDkgMTI1Ljc3OTMsMTcyLjYwMjcgMTU2LjY1OTMsMTc4LjI5MjcgIiBmaWxsPSJub25lIiBpZD0iY3VzdC10by1DaGVja291dCIgc3R5bGU9InN0cm9rZTojMTgxODE4O3N0cm9rZS13aWR0aDoxLjA7Ii8+PHBvbHlnb24gZmlsbD0iIzE4MTgxOCIgcG9pbnRzPSIxNjIuNTYsMTc5LjM4LDE1NC40MzM4LDE3My44MTUzLDE1Ny42NDI4LDE3OC40NzM5LDE1Mi45ODQyLDE4MS42ODI5LDE2Mi41NiwxNzkuMzgiIHN0eWxlPSJzdHJva2U6IzE4MTgxODtzdHJva2Utd2lkdGg6MS4wOyIvPjwvZz48IS0tbGluayBjdXN0IHRvIFZpZXcgT3JkZXIgSGlzdG9yeS0tPjxnIGlkPSJsaW5rX2N1c3RfVmlldyBPcmRlciBIaXN0b3J5Ij48cGF0aCBkPSJNNjMuMjQsMTg4LjI3IEM3My42MSwxOTguODUgODYuMDQsMjA5Ljk1IDk5LDIxOCBDMTE0LjUxLDIyNy42NCAxMjcuMTkyMywyMzMuMjk5NiAxNDQuMTkyMywyMzkuMDA5NiAiIGZpbGw9Im5vbmUiIGlkPSJjdXN0LXRvLVZpZXcgT3JkZXIgSGlzdG9yeSIgc3R5bGU9InN0cm9rZTojMTgxODE4O3N0cm9rZS13aWR0aDoxLjA7Ii8+PHBvbHlnb24gZmlsbD0iIzE4MTgxOCIgcG9pbnRzPSIxNDkuODgsMjQwLjkyLDE0Mi42MjIsMjM0LjI2MjYsMTQ1LjE0MDIsMjM5LjMyOCwxNDAuMDc0OCwyNDEuODQ2MiwxNDkuODgsMjQwLjkyIiBzdHlsZT0ic3Ryb2tlOiMxODE4MTg7c3Ryb2tlLXdpZHRoOjEuMDsiLz48L2c+PCEtLWxpbmsgYWRtaW4gdG8gQWRkIFByb2R1Y3QtLT48ZyBpZD0ibGlua19hZG1pbl9BZGQgUHJvZHVjdCI+PHBhdGggZD0iTTUyLjUzLDM4MC4zNCBDNjUuMDUsMzcyLjgyIDgyLjY1LDM2Mi45MSA5OSwzNTYgQzExOS40NSwzNDcuMzYgMTM3LjI1MzMsMzQxLjU4MTUgMTU2Ljg4MzMsMzM2LjA3MTUgIiBmaWxsPSJub25lIiBpZD0iYWRtaW4tdG8tQWRkIFByb2R1Y3QiIHN0eWxlPSJzdHJva2U6IzE4MTgxODtzdHJva2Utd2lkdGg6MS4wOyIvPjxwb2x5Z29uIGZpbGw9IiMxODE4MTgiIHBvaW50cz0iMTYyLjY2LDMzNC40NSwxNTIuOTEzOSwzMzMuMDMxMSwxNTcuODQ2LDMzNS44MDEyLDE1NS4wNzU5LDM0MC43MzM0LDE2Mi42NiwzMzQuNDUiIHN0eWxlPSJzdHJva2U6IzE4MTgxODtzdHJva2Utd2lkdGg6MS4wOyIvPjwvZz48IS0tbGluayBhZG1pbiB0byBNYW5hZ2UgSW52ZW50b3J5LS0+PGcgaWQ9ImxpbmtfYWRtaW5fTWFuYWdlIEludmVudG9yeSI+PHBhdGggZD0iTTUyLjU4LDM5MSBDNzAuNzQsMzkxIDk0LjcsMzkxIDEyMy4yMSwzOTEgIiBmaWxsPSJub25lIiBpZD0iYWRtaW4tdG8tTWFuYWdlIEludmVudG9yeSIgc3R5bGU9InN0cm9rZTojMTgxODE4O3N0cm9rZS13aWR0aDoxLjA7Ii8+PHBvbHlnb24gZmlsbD0iIzE4MTgxOCIgcG9pbnRzPSIxMjkuMjEsMzkxLDEyMC4yMSwzODcsMTI0LjIxLDM5MSwxMjAuMjEsMzk1LDEyOS4yMSwzOTEiIHN0eWxlPSJzdHJva2U6IzE4MTgxODtzdHJva2Utd2lkdGg6MS4wOyIvPjwvZz48IS0tbGluayBhZG1pbiB0byBNYW5hZ2UgT3JkZXJzLS0+PGcgaWQ9ImxpbmtfYWRtaW5fTWFuYWdlIE9yZGVycyI+PHBhdGggZD0iTTUyLjU1LDQwMS42MiBDNjUuMDcsNDA5LjExIDgyLjY4LDQxOS4wMiA5OSw0MjYgQzExOC42OCw0MzQuNDIgMTM1LjQ3MzQsNDQwLjA4ODUgMTU0LjYzMzQsNDQ1LjcxODUgIiBmaWxsPSJub25lIiBpZD0iYWRtaW4tdG8tTWFuYWdlIE9yZGVycyIgc3R5bGU9InN0cm9rZTojMTgxODE4O3N0cm9rZS13aWR0aDoxLjA7Ii8+PHBvbHlnb24gZmlsbD0iIzE4MTgxOCIgcG9pbnRzPSIxNjAuMzksNDQ3LjQxLDE1Mi44ODI4LDQ0MS4wMzUsMTU1LjU5MjgsNDQ2LjAwMDQsMTUwLjYyNzQsNDQ4LjcxMDQsMTYwLjM5LDQ0Ny40MSIgc3R5bGU9InN0cm9rZTojMTgxODE4O3N0cm9rZS13aWR0aDoxLjA7Ii8+PC9nPjwhLS1TUkM9W1BPeDEyaThtMzhSbFZPZ21hcGxpNU9HdjEzczhkaG9ORGprQVFtRGZ2WDNudE10N0hBUUdHX1dfX2tHUmkxS0cwZFBUQnMwVGVuNTdHTWFabkQyQ0tTV1pXdXZXcWh4NGpWS2t2NHBkSFFiU3FnNFI0OGZ6UFNZZFhhNnUzNWZRT2JfMEt5NVNYd2hRbWNSN0RDTTRjVW5lOTlPaE01a1JUSGhEaVdQRFotUDZ1cXp3VEpaMWNNcklGQlphb2VfQ3F5bmN0dkZCaXQ5REpaaGUzazRPeFhXLXROeXlkcS1RaHBTMF0tLT48L2c+PC9zdmc+;" vertex="1" parent="1">
            <mxGeometry x="130" y="-100" width="410" height="659.45" as="geometry" />
          </mxCell>
        </UserObject>
        <UserObject label="" plantUmlData="{&#xa;  &quot;data&quot;: &quot;@startuml\nleft to right direction\nactor Customer as cust\nactor \&quot;Bank Teller\&quot; as teller\nactor Manager as mgr\n\nrectangle \&quot;Banking System\&quot; {\n  cust --&gt; (View Account Balance)\n  cust --&gt; (Transfer Funds)\n  cust --&gt; (Pay Bills)\n  \n  teller --&gt; (Deposit/Withdraw Funds)\n  teller --&gt; (Open/Close Account)\n  \n  mgr --&gt; (Generate Reports)\n  mgr --&gt; (Approve Transactions)\n}\n@enduml\n&quot;,&#xa;  &quot;format&quot;: &quot;svg&quot;&#xa;}" id="ke1pgu3JhG9WEocOsTO3-2">
          <mxCell style="shape=image;noLabel=1;verticalAlign=top;aspect=fixed;imageAspect=0;image=data:image/svg+xml,PD94bWwgdmVyc2lvbj0iMS4wIiBlbmNvZGluZz0idXMtYXNjaWkiIHN0YW5kYWxvbmU9Im5vIj8+PHN2ZyB4bWxucz0iaHR0cDovL3d3dy53My5vcmcvMjAwMC9zdmciIHhtbG5zOnhsaW5rPSJodHRwOi8vd3d3LnczLm9yZy8xOTk5L3hsaW5rIiBjb250ZW50U3R5bGVUeXBlPSJ0ZXh0L2NzcyIgaGVpZ2h0PSI1MjhweCIgcHJlc2VydmVBc3BlY3RSYXRpbz0ibm9uZSIgc3R5bGU9IndpZHRoOjM1NHB4O2hlaWdodDo1MjhweDtiYWNrZ3JvdW5kOiNGRkZGRkY7IiB2ZXJzaW9uPSIxLjEiIHZpZXdCb3g9IjAgMCAzNTQgNTI4IiB3aWR0aD0iMzU0cHgiIHpvb21BbmRQYW49Im1hZ25pZnkiPjxkZWZzLz48Zz48IS0tY2x1c3RlciBCYW5raW5nIFN5c3RlbS0tPjxnIGlkPSJjbHVzdGVyX0JhbmtpbmcgU3lzdGVtIj48cmVjdCBmaWxsPSJub25lIiBoZWlnaHQ9IjUxNSIgcng9IjIuNSIgcnk9IjIuNSIgc3R5bGU9InN0cm9rZTojMTgxODE4O3N0cm9rZS13aWR0aDoxLjA7IiB3aWR0aD0iMjIxIiB4PSIxMjciIHk9IjciLz48dGV4dCBmaWxsPSIjMDAwMDAwIiBmb250LWZhbWlseT0ic2Fucy1zZXJpZiIgZm9udC1zaXplPSIxNCIgZm9udC13ZWlnaHQ9ImJvbGQiIGxlbmd0aEFkanVzdD0ic3BhY2luZyIgdGV4dExlbmd0aD0iOTkiIHg9IjE4OCIgeT0iMjIuMjM0NCI+QmFua2luZyBTeXN0ZW08L3RleHQ+PC9nPjxnIGlkPSJlbGVtX1ZpZXcgQWNjb3VudCBCYWxhbmNlIj48ZWxsaXBzZSBjeD0iMjM3LjY3OTYiIGN5PSI2MC4wMzU5IiBmaWxsPSIjRjFGMUYxIiByeD0iODguMTc5NiIgcnk9IjIwLjAzNTkiIHN0eWxlPSJzdHJva2U6IzE4MTgxODtzdHJva2Utd2lkdGg6MC41OyIvPjx0ZXh0IGZpbGw9IiMwMDAwMDAiIGZvbnQtZmFtaWx5PSJzYW5zLXNlcmlmIiBmb250LXNpemU9IjE0IiBsZW5ndGhBZGp1c3Q9InNwYWNpbmciIHRleHRMZW5ndGg9IjE0MSIgeD0iMTY3LjE3OTYiIHk9IjYzLjc3ODEiPlZpZXcgQWNjb3VudCBCYWxhbmNlPC90ZXh0PjwvZz48ZyBpZD0iZWxlbV9UcmFuc2ZlciBGdW5kcyI+PGVsbGlwc2UgY3g9IjIzNy41NDU2IiBjeT0iMTMxLjgwOTEiIGZpbGw9IiNGMUYxRjEiIHJ4PSI2OS41NDU2IiByeT0iMTYuMzA5MSIgc3R5bGU9InN0cm9rZTojMTgxODE4O3N0cm9rZS13aWR0aDowLjU7Ii8+PHRleHQgZmlsbD0iIzAwMDAwMCIgZm9udC1mYW1pbHk9InNhbnMtc2VyaWYiIGZvbnQtc2l6ZT0iMTQiIGxlbmd0aEFkanVzdD0ic3BhY2luZyIgdGV4dExlbmd0aD0iOTgiIHg9IjE4OC41NDU2IiB5PSIxMzUuNTUxMyI+VHJhbnNmZXIgRnVuZHM8L3RleHQ+PC9nPjxnIGlkPSJlbGVtX1BheSBCaWxscyI+PGVsbGlwc2UgY3g9IjIzNy41MDU0IiBjeT0iMTk3LjEwMTEiIGZpbGw9IiNGMUYxRjEiIHJ4PSI1Ni4wMDU0IiByeT0iMTMuNjAxMSIgc3R5bGU9InN0cm9rZTojMTgxODE4O3N0cm9rZS13aWR0aDowLjU7Ii8+PHRleHQgZmlsbD0iIzAwMDAwMCIgZm9udC1mYW1pbHk9InNhbnMtc2VyaWYiIGZvbnQtc2l6ZT0iMTQiIGxlbmd0aEFkanVzdD0ic3BhY2luZyIgdGV4dExlbmd0aD0iNjMiIHg9IjIwNi4wMDU0IiB5PSIyMDAuODQzMyI+UGF5IEJpbGxzPC90ZXh0PjwvZz48ZyBpZD0iZWxlbV9EZXBvc2l0L1dpdGhkcmF3IEZ1bmRzIj48ZWxsaXBzZSBjeD0iMjM3LjUxODIiIGN5PSIyNjYuODAzNiIgZmlsbD0iI0YxRjFGMSIgcng9Ijk0LjUxODIiIHJ5PSIyMS4zMDM2IiBzdHlsZT0ic3Ryb2tlOiMxODE4MTg7c3Ryb2tlLXdpZHRoOjAuNTsiLz48dGV4dCBmaWxsPSIjMDAwMDAwIiBmb250LWZhbWlseT0ic2Fucy1zZXJpZiIgZm9udC1zaXplPSIxNCIgbGVuZ3RoQWRqdXN0PSJzcGFjaW5nIiB0ZXh0TGVuZ3RoPSIxNTUiIHg9IjE2MC4wMTgyIiB5PSIyNzAuNTQ1OCI+RGVwb3NpdC9XaXRoZHJhdyBGdW5kczwvdGV4dD48L2c+PGcgaWQ9ImVsZW1fT3Blbi9DbG9zZSBBY2NvdW50Ij48ZWxsaXBzZSBjeD0iMjM3LjUxMzIiIGN5PSIzNDIuMjAyNiIgZmlsbD0iI0YxRjFGMSIgcng9IjgxLjUxMzIiIHJ5PSIxOC43MDI2IiBzdHlsZT0ic3Ryb2tlOiMxODE4MTg7c3Ryb2tlLXdpZHRoOjAuNTsiLz48dGV4dCBmaWxsPSIjMDAwMDAwIiBmb250LWZhbWlseT0ic2Fucy1zZXJpZiIgZm9udC1zaXplPSIxNCIgbGVuZ3RoQWRqdXN0PSJzcGFjaW5nIiB0ZXh0TGVuZ3RoPSIxMjYiIHg9IjE3NC41MTMyIiB5PSIzNDUuOTQ0OCI+T3Blbi9DbG9zZSBBY2NvdW50PC90ZXh0PjwvZz48ZyBpZD0iZWxlbV9HZW5lcmF0ZSBSZXBvcnRzIj48ZWxsaXBzZSBjeD0iMjM3LjQzODQiIGN5PSI0MTIuOTg3NyIgZmlsbD0iI0YxRjFGMSIgcng9Ijc1LjQzODQiIHJ5PSIxNy40ODc3IiBzdHlsZT0ic3Ryb2tlOiMxODE4MTg7c3Ryb2tlLXdpZHRoOjAuNTsiLz48dGV4dCBmaWxsPSIjMDAwMDAwIiBmb250LWZhbWlseT0ic2Fucy1zZXJpZiIgZm9udC1zaXplPSIxNCIgbGVuZ3RoQWRqdXN0PSJzcGFjaW5nIiB0ZXh0TGVuZ3RoPSIxMTIiIHg9IjE4MS40Mzg0IiB5PSI0MTYuNzI5OSI+R2VuZXJhdGUgUmVwb3J0czwvdGV4dD48L2c+PGcgaWQ9ImVsZW1fQXBwcm92ZSBUcmFuc2FjdGlvbnMiPjxlbGxpcHNlIGN4PSIyMzcuNzMwOSIgY3k9IjQ4NS45NDYyIiBmaWxsPSIjRjFGMUYxIiByeD0iODcuNzMwOSIgcnk9IjE5Ljk0NjIiIHN0eWxlPSJzdHJva2U6IzE4MTgxODtzdHJva2Utd2lkdGg6MC41OyIvPjx0ZXh0IGZpbGw9IiMwMDAwMDAiIGZvbnQtZmFtaWx5PSJzYW5zLXNlcmlmIiBmb250LXNpemU9IjE0IiBsZW5ndGhBZGp1c3Q9InNwYWNpbmciIHRleHRMZW5ndGg9IjE0MCIgeD0iMTY3LjczMDkiIHk9IjQ4OS42ODg0Ij5BcHByb3ZlIFRyYW5zYWN0aW9uczwvdGV4dD48L2c+PCEtLWVudGl0eSBjdXN0LS0+PGcgaWQ9ImVsZW1fY3VzdCI+PGVsbGlwc2UgY3g9IjQ0LjUiIGN5PSIxMDMiIGZpbGw9IiNGMUYxRjEiIHJ4PSI4IiByeT0iOCIgc3R5bGU9InN0cm9rZTojMTgxODE4O3N0cm9rZS13aWR0aDowLjU7Ii8+PHBhdGggZD0iTTQ0LjUsMTExIEw0NC41LDEzOCBNMzEuNSwxMTkgTDU3LjUsMTE5IE00NC41LDEzOCBMMzEuNSwxNTMgTTQ0LjUsMTM4IEw1Ny41LDE1MyAiIGZpbGw9Im5vbmUiIHN0eWxlPSJzdHJva2U6IzE4MTgxODtzdHJva2Utd2lkdGg6MC41OyIvPjx0ZXh0IGZpbGw9IiMwMDAwMDAiIGZvbnQtZmFtaWx5PSJzYW5zLXNlcmlmIiBmb250LXNpemU9IjE0IiBsZW5ndGhBZGp1c3Q9InNwYWNpbmciIHRleHRMZW5ndGg9IjU3IiB4PSIxNiIgeT0iMTY3LjczNDQiPkN1c3RvbWVyPC90ZXh0PjwvZz48IS0tZW50aXR5IHRlbGxlci0tPjxnIGlkPSJlbGVtX3RlbGxlciI+PGVsbGlwc2UgY3g9IjQ0LjUiIGN5PSIyODUiIGZpbGw9IiNGMUYxRjEiIHJ4PSI4IiByeT0iOCIgc3R5bGU9InN0cm9rZTojMTgxODE4O3N0cm9rZS13aWR0aDowLjU7Ii8+PHBhdGggZD0iTTQ0LjUsMjkzIEw0NC41LDMyMCBNMzEuNSwzMDEgTDU3LjUsMzAxIE00NC41LDMyMCBMMzEuNSwzMzUgTTQ0LjUsMzIwIEw1Ny41LDMzNSAiIGZpbGw9Im5vbmUiIHN0eWxlPSJzdHJva2U6IzE4MTgxODtzdHJva2Utd2lkdGg6MC41OyIvPjx0ZXh0IGZpbGw9IiMwMDAwMDAiIGZvbnQtZmFtaWx5PSJzYW5zLXNlcmlmIiBmb250LXNpemU9IjE0IiBsZW5ndGhBZGp1c3Q9InNwYWNpbmciIHRleHRMZW5ndGg9Ijc3IiB4PSI2IiB5PSIzNDkuNzM0NCI+QmFuayBUZWxsZXI8L3RleHQ+PC9nPjwhLS1lbnRpdHkgbWdyLS0+PGcgaWQ9ImVsZW1fbWdyIj48ZWxsaXBzZSBjeD0iNDQuNSIgY3k9IjQxMiIgZmlsbD0iI0YxRjFGMSIgcng9IjgiIHJ5PSI4IiBzdHlsZT0ic3Ryb2tlOiMxODE4MTg7c3Ryb2tlLXdpZHRoOjAuNTsiLz48cGF0aCBkPSJNNDQuNSw0MjAgTDQ0LjUsNDQ3IE0zMS41LDQyOCBMNTcuNSw0MjggTTQ0LjUsNDQ3IEwzMS41LDQ2MiBNNDQuNSw0NDcgTDU3LjUsNDYyICIgZmlsbD0ibm9uZSIgc3R5bGU9InN0cm9rZTojMTgxODE4O3N0cm9rZS13aWR0aDowLjU7Ii8+PHRleHQgZmlsbD0iIzAwMDAwMCIgZm9udC1mYW1pbHk9InNhbnMtc2VyaWYiIGZvbnQtc2l6ZT0iMTQiIGxlbmd0aEFkanVzdD0ic3BhY2luZyIgdGV4dExlbmd0aD0iNDkiIHg9IjIwIiB5PSI0NzYuNzM0NCI+TWFuYWdlcjwvdGV4dD48L2c+PCEtLWxpbmsgY3VzdCB0byBWaWV3IEFjY291bnQgQmFsYW5jZS0tPjxnIGlkPSJsaW5rX2N1c3RfVmlldyBBY2NvdW50IEJhbGFuY2UiPjxwYXRoIGQ9Ik03My4wOCwxMTguMjggQzg2LjczLDExMS43NCAxMDMuNTUsMTA0LjA1IDExOSw5OCBDMTM5LjY2LDg5LjkxIDE1Ny4xMDYyLDgzLjk0OTYgMTc3LjM2NjIsNzcuNTc5NiAiIGZpbGw9Im5vbmUiIGlkPSJjdXN0LXRvLVZpZXcgQWNjb3VudCBCYWxhbmNlIiBzdHlsZT0ic3Ryb2tlOiMxODE4MTg7c3Ryb2tlLXdpZHRoOjEuMDsiLz48cG9seWdvbiBmaWxsPSIjMTgxODE4IiBwb2ludHM9IjE4My4wOSw3NS43OCwxNzMuMzA0Niw3NC42NjM2LDE3OC4zMjAyLDc3LjI3OTcsMTc1LjcwNDEsODIuMjk1MywxODMuMDksNzUuNzgiIHN0eWxlPSJzdHJva2U6IzE4MTgxODtzdHJva2Utd2lkdGg6MS4wOyIvPjwvZz48IS0tbGluayBjdXN0IHRvIFRyYW5zZmVyIEZ1bmRzLS0+PGcgaWQ9ImxpbmtfY3VzdF9UcmFuc2ZlciBGdW5kcyI+PHBhdGggZD0iTTczLjI3LDEzMiBDOTgsMTMyIDEyOS4yMSwxMzIgMTYxLjg2LDEzMiAiIGZpbGw9Im5vbmUiIGlkPSJjdXN0LXRvLVRyYW5zZmVyIEZ1bmRzIiBzdHlsZT0ic3Ryb2tlOiMxODE4MTg7c3Ryb2tlLXdpZHRoOjEuMDsiLz48cG9seWdvbiBmaWxsPSIjMTgxODE4IiBwb2ludHM9IjE2Ny44NiwxMzIsMTU4Ljg2LDEyOCwxNjIuODYsMTMyLDE1OC44NiwxMzYsMTY3Ljg2LDEzMiIgc3R5bGU9InN0cm9rZTojMTgxODE4O3N0cm9rZS13aWR0aDoxLjA7Ii8+PC9nPjwhLS1saW5rIGN1c3QgdG8gUGF5IEJpbGxzLS0+PGcgaWQ9ImxpbmtfY3VzdF9QYXkgQmlsbHMiPjxwYXRoIGQ9Ik03My4yOSwxNDYuMjYgQzg2Ljg0LDE1Mi44NSAxMDMuNTIsMTYwLjQzIDExOSwxNjYgQzE0My45MSwxNzQuOTcgMTY2LjgwMzcsMTgxLjIwODEgMTg5LjYxMzcsMTg2LjY0ODEgIiBmaWxsPSJub25lIiBpZD0iY3VzdC10by1QYXkgQmlsbHMiIHN0eWxlPSJzdHJva2U6IzE4MTgxODtzdHJva2Utd2lkdGg6MS4wOyIvPjxwb2x5Z29uIGZpbGw9IiMxODE4MTgiIHBvaW50cz0iMTk1LjQ1LDE4OC4wNCwxODcuNjIzNSwxODIuMDYxMywxOTAuNTg2NCwxODYuODgwMSwxODUuNzY3NiwxODkuODQzLDE5NS40NSwxODguMDQiIHN0eWxlPSJzdHJva2U6IzE4MTgxODtzdHJva2Utd2lkdGg6MS4wOyIvPjwvZz48IS0tbGluayB0ZWxsZXIgdG8gRGVwb3NpdC9XaXRoZHJhdyBGdW5kcy0tPjxnIGlkPSJsaW5rX3RlbGxlcl9EZXBvc2l0L1dpdGhkcmF3IEZ1bmRzIj48cGF0aCBkPSJNODMuMjQsMzA0LjcxIEMxMDguNjgsMjk4LjQ1IDEzNy4wNTM3LDI5MS40NzM1IDE2Ni42ODM3LDI4NC4xODM1ICIgZmlsbD0ibm9uZSIgaWQ9InRlbGxlci10by1EZXBvc2l0L1dpdGhkcmF3IEZ1bmRzIiBzdHlsZT0ic3Ryb2tlOiMxODE4MTg7c3Ryb2tlLXdpZHRoOjEuMDsiLz48cG9seWdvbiBmaWxsPSIjMTgxODE4IiBwb2ludHM9IjE3Mi41MSwyODIuNzUsMTYyLjgxNSwyODEuMDE2LDE2Ny42NTQ4LDI4My45NDQ1LDE2NC43MjYzLDI4OC43ODQ0LDE3Mi41MSwyODIuNzUiIHN0eWxlPSJzdHJva2U6IzE4MTgxODtzdHJva2Utd2lkdGg6MS4wOyIvPjwvZz48IS0tbGluayB0ZWxsZXIgdG8gT3Blbi9DbG9zZSBBY2NvdW50LS0+PGcgaWQ9ImxpbmtfdGVsbGVyX09wZW4vQ2xvc2UgQWNjb3VudCI+PHBhdGggZD0iTTgzLjI0LDMxOS41MyBDMTA3LjU5LDMyMy4xIDEzNC4wMzM0LDMyNi45Nzk4IDE2Mi43NTM0LDMzMS4xODk4ICIgZmlsbD0ibm9uZSIgaWQ9InRlbGxlci10by1PcGVuL0Nsb3NlIEFjY291bnQiIHN0eWxlPSJzdHJva2U6IzE4MTgxODtzdHJva2Utd2lkdGg6MS4wOyIvPjxwb2x5Z29uIGZpbGw9IiMxODE4MTgiIHBvaW50cz0iMTY4LjY5LDMzMi4wNiwxNjAuMzY1MywzMjYuNzk3LDE2My43NDI5LDMzMS4zMzQ4LDE1OS4yMDUsMzM0LjcxMjQsMTY4LjY5LDMzMi4wNiIgc3R5bGU9InN0cm9rZTojMTgxODE4O3N0cm9rZS13aWR0aDoxLjA7Ii8+PC9nPjwhLS1saW5rIG1nciB0byBHZW5lcmF0ZSBSZXBvcnRzLS0+PGcgaWQ9ImxpbmtfbWdyX0dlbmVyYXRlIFJlcG9ydHMiPjxwYXRoIGQ9Ik02OS4zLDQzNy41MSBDOTUuMiw0MzMuNzEgMTMxLjc1MzUsNDI4LjM2MDkgMTY3LjQwMzUsNDIzLjEzMDkgIiBmaWxsPSJub25lIiBpZD0ibWdyLXRvLUdlbmVyYXRlIFJlcG9ydHMiIHN0eWxlPSJzdHJva2U6IzE4MTgxODtzdHJva2Utd2lkdGg6MS4wOyIvPjxwb2x5Z29uIGZpbGw9IiMxODE4MTgiIHBvaW50cz0iMTczLjM0LDQyMi4yNiwxNjMuODU0Nyw0MTkuNjA4NywxNjguMzkzLDQyMi45ODU4LDE2NS4wMTU5LDQyNy41MjQsMTczLjM0LDQyMi4yNiIgc3R5bGU9InN0cm9rZTojMTgxODE4O3N0cm9rZS13aWR0aDoxLjA7Ii8+PC9nPjwhLS1saW5rIG1nciB0byBBcHByb3ZlIFRyYW5zYWN0aW9ucy0tPjxnIGlkPSJsaW5rX21ncl9BcHByb3ZlIFRyYW5zYWN0aW9ucyI+PHBhdGggZD0iTTY5LjMsNDQ2LjYxIEM5NS44LDQ1Mi44NSAxMzMuODIsNDYxLjgwMzYgMTY5Ljk3LDQ3MC4zMjM2ICIgZmlsbD0ibm9uZSIgaWQ9Im1nci10by1BcHByb3ZlIFRyYW5zYWN0aW9ucyIgc3R5bGU9InN0cm9rZTojMTgxODE4O3N0cm9rZS13aWR0aDoxLjA7Ii8+PHBvbHlnb24gZmlsbD0iIzE4MTgxOCIgcG9pbnRzPSIxNzUuODEsNDcxLjcsMTY3Ljk2NzYsNDY1Ljc0MjEsMTcwLjk0MzMsNDcwLjU1MywxNjYuMTMyNCw0NzMuNTI4NywxNzUuODEsNDcxLjciIHN0eWxlPSJzdHJva2U6IzE4MTgxODtzdHJva2Utd2lkdGg6MS4wOyIvPjwvZz48IS0tU1JDPVtMUDNEUWlDbTQ4SmxWZWg1Zl9HR3lXUTFFQUt6YlBPYTlFVDVOWWtZeWlnaXJXY1h6RHFaSS12Rkc4VGJQLVBaTGZ1dzFHcVdwZnVMTVlUYXIwTWtxNldHczh2SEdxeTI2QzZhVUx4TjNWOGQ3Q1h4YWRoSUQ4LXAtZVFDamNId0FyS3I4UDZqZnY5cFI2NV9ZcWZ6M0x5TFAydWlic2pPNzFyVE9NREM2NWNYR096aXdFZDFTSDNhczJOc295WGpWREcteTBRRHlwd2xxb2tUWWxQQ0d1WEVMb1VkdnJSbS1mVl94dGVWWTVUUjdvQnpqOVhId09wWVUyS2NHSU5POVExZTlsb0FjczZHUzI3ODlKNV9PcDl5dG00MF0tLT48L2c+PC9zdmc+;" vertex="1" parent="1">
            <mxGeometry x="130" y="656.89" width="420.37" height="627" as="geometry" />
          </mxCell>
        </UserObject>
        <UserObject label="" plantUmlData="{&#xa;  &quot;data&quot;: &quot;@startuml\nleft to right direction\nactor Customer as cust\nactor Admin as admin\n\nrectangle \&quot;E-commerce Platform\&quot; {\n  cust --&gt; (Browse Products)\n  cust --&gt; (Add to Cart)\n  cust --&gt; (Checkout)\n  cust --&gt; (View Order History)\n  \n  admin --&gt; (Manage Products)\n  admin --&gt; (Manage Orders)\n}\n\nrectangle \&quot;Product Service\&quot; {\n  (Manage Products)\n}\n\nrectangle \&quot;Order Service\&quot; {\n  (Manage Orders)\n}\n\ncust --&gt; (View Product Catalog)\n(View Product Catalog) --&gt; (Manage Products)\n\n(View Product Catalog) --&gt; (View Product Details)\n(View Product Catalog) --&gt; (Add Product to Cart)\n\n(Add Product to Cart) --&gt; (View Cart)\n(View Cart) --&gt; (Checkout)\n@enduml\n&quot;,&#xa;  &quot;format&quot;: &quot;svg&quot;&#xa;}" id="ke1pgu3JhG9WEocOsTO3-5">
          <mxCell style="shape=image;noLabel=1;verticalAlign=top;aspect=fixed;imageAspect=0;image=data:image/svg+xml,PD94bWwgdmVyc2lvbj0iMS4wIiBlbmNvZGluZz0idXMtYXNjaWkiIHN0YW5kYWxvbmU9Im5vIj8+PHN2ZyB4bWxucz0iaHR0cDovL3d3dy53My5vcmcvMjAwMC9zdmciIHhtbG5zOnhsaW5rPSJodHRwOi8vd3d3LnczLm9yZy8xOTk5L3hsaW5rIiBjb250ZW50U3R5bGVUeXBlPSJ0ZXh0L2NzcyIgaGVpZ2h0PSI1MDJweCIgcHJlc2VydmVBc3BlY3RSYXRpbz0ibm9uZSIgc3R5bGU9IndpZHRoOjEwMjNweDtoZWlnaHQ6NTAycHg7YmFja2dyb3VuZDojRkZGRkZGOyIgdmVyc2lvbj0iMS4xIiB2aWV3Qm94PSIwIDAgMTAyMyA1MDIiIHdpZHRoPSIxMDIzcHgiIHpvb21BbmRQYW49Im1hZ25pZnkiPjxkZWZzLz48Zz48IS0tY2x1c3RlciBFLWNvbW1lcmNlIFBsYXRmb3JtLS0+PGcgaWQ9ImNsdXN0ZXJfRS1jb21tZXJjZSBQbGF0Zm9ybSI+PHJlY3QgZmlsbD0ibm9uZSIgaGVpZ2h0PSI0MTkiIHJ4PSIyLjUiIHJ5PSIyLjUiIHN0eWxlPSJzdHJva2U6IzE4MTgxODtzdHJva2Utd2lkdGg6MS4wOyIgd2lkdGg9IjE5NiIgeD0iODIxIiB5PSI1NS43NiIvPjx0ZXh0IGZpbGw9IiMwMDAwMDAiIGZvbnQtZmFtaWx5PSJzYW5zLXNlcmlmIiBmb250LXNpemU9IjE0IiBmb250LXdlaWdodD0iYm9sZCIgbGVuZ3RoQWRqdXN0PSJzcGFjaW5nIiB0ZXh0TGVuZ3RoPSIxMzYiIHg9Ijg1MSIgeT0iNzAuOTk0NCI+RS1jb21tZXJjZSBQbGF0Zm9ybTwvdGV4dD48L2c+PGcgaWQ9ImVsZW1fQnJvd3NlIFByb2R1Y3RzIj48ZWxsaXBzZSBjeD0iOTE4Ljg4NzkiIGN5PSIzMDMuNzM3NiIgZmlsbD0iI0YxRjFGMSIgcng9IjcyLjg4NzkiIHJ5PSIxNi45Nzc2IiBzdHlsZT0ic3Ryb2tlOiMxODE4MTg7c3Ryb2tlLXdpZHRoOjAuNTsiLz48dGV4dCBmaWxsPSIjMDAwMDAwIiBmb250LWZhbWlseT0ic2Fucy1zZXJpZiIgZm9udC1zaXplPSIxNCIgbGVuZ3RoQWRqdXN0PSJzcGFjaW5nIiB0ZXh0TGVuZ3RoPSIxMDYiIHg9Ijg2NS44ODc5IiB5PSIzMDcuNDc5OCI+QnJvd3NlIFByb2R1Y3RzPC90ZXh0PjwvZz48ZyBpZD0iZWxlbV9BZGQgdG8gQ2FydCI+PGVsbGlwc2UgY3g9IjkxOS4xNjg1IiBjeT0iMzcwLjg5MzciIGZpbGw9IiNGMUYxRjEiIHJ4PSI2MS4xNjg1IiByeT0iMTQuNjMzNyIgc3R5bGU9InN0cm9rZTojMTgxODE4O3N0cm9rZS13aWR0aDowLjU7Ii8+PHRleHQgZmlsbD0iIzAwMDAwMCIgZm9udC1mYW1pbHk9InNhbnMtc2VyaWYiIGZvbnQtc2l6ZT0iMTQiIGxlbmd0aEFkanVzdD0ic3BhY2luZyIgdGV4dExlbmd0aD0iNzciIHg9Ijg4MC42Njg1IiB5PSIzNzQuNjM1OSI+QWRkIHRvIENhcnQ8L3RleHQ+PC9nPjxnIGlkPSJlbGVtX0NoZWNrb3V0Ij48ZWxsaXBzZSBjeD0iOTE5LjA4MzMiIGN5PSIyMzcuODU1NiIgZmlsbD0iI0YxRjFGMSIgcng9IjUxLjA4MzMiIHJ5PSIxMy41OTU2IiBzdHlsZT0ic3Ryb2tlOiMxODE4MTg7c3Ryb2tlLXdpZHRoOjAuNTsiLz48dGV4dCBmaWxsPSIjMDAwMDAwIiBmb250LWZhbWlseT0ic2Fucy1zZXJpZiIgZm9udC1zaXplPSIxNCIgbGVuZ3RoQWRqdXN0PSJzcGFjaW5nIiB0ZXh0TGVuZ3RoPSI1NiIgeD0iODkxLjA4MzMiIHk9IjI0MS41OTc3Ij5DaGVja291dDwvdGV4dD48L2c+PGcgaWQ9ImVsZW1fVmlldyBPcmRlciBIaXN0b3J5Ij48ZWxsaXBzZSBjeD0iOTE4Ljk1MyIgY3k9IjQzOS41NTA2IiBmaWxsPSIjRjFGMUYxIiByeD0iODEuOTUzIiByeT0iMTguNzkwNiIgc3R5bGU9InN0cm9rZTojMTgxODE4O3N0cm9rZS13aWR0aDowLjU7Ii8+PHRleHQgZmlsbD0iIzAwMDAwMCIgZm9udC1mYW1pbHk9InNhbnMtc2VyaWYiIGZvbnQtc2l6ZT0iMTQiIGxlbmd0aEFkanVzdD0ic3BhY2luZyIgdGV4dExlbmd0aD0iMTI3IiB4PSI4NTUuNDUzIiB5PSI0NDMuMjkyOCI+VmlldyBPcmRlciBIaXN0b3J5PC90ZXh0PjwvZz48ZyBpZD0iZWxlbV9NYW5hZ2UgUHJvZHVjdHMiPjxlbGxpcHNlIGN4PSI5MTguOTY2MyIgY3k9IjEwNS42NTMzIiBmaWxsPSIjRjFGMUYxIiByeD0iNzIuNDY2MyIgcnk9IjE2Ljg5MzMiIHN0eWxlPSJzdHJva2U6IzE4MTgxODtzdHJva2Utd2lkdGg6MC41OyIvPjx0ZXh0IGZpbGw9IiMwMDAwMDAiIGZvbnQtZmFtaWx5PSJzYW5zLXNlcmlmIiBmb250LXNpemU9IjE0IiBsZW5ndGhBZGp1c3Q9InNwYWNpbmciIHRleHRMZW5ndGg9IjEwNSIgeD0iODY2LjQ2NjMiIHk9IjEwOS4zOTU1Ij5NYW5hZ2UgUHJvZHVjdHM8L3RleHQ+PC9nPjxnIGlkPSJlbGVtX01hbmFnZSBPcmRlcnMiPjxlbGxpcHNlIGN4PSI5MTkuMTgzNCIgY3k9IjE3My45OTY3IiBmaWxsPSIjRjFGMUYxIiByeD0iNjYuNjgzNCIgcnk9IjE1LjczNjciIHN0eWxlPSJzdHJva2U6IzE4MTgxODtzdHJva2Utd2lkdGg6MC41OyIvPjx0ZXh0IGZpbGw9IiMwMDAwMDAiIGZvbnQtZmFtaWx5PSJzYW5zLXNlcmlmIiBmb250LXNpemU9IjE0IiBsZW5ndGhBZGp1c3Q9InNwYWNpbmciIHRleHRMZW5ndGg9IjkxIiB4PSI4NzMuNjgzNCIgeT0iMTc3LjczODkiPk1hbmFnZSBPcmRlcnM8L3RleHQ+PC9nPjwhLS1lbnRpdHkgUHJvZHVjdCBTZXJ2aWNlLS0+PGcgaWQ9ImVsZW1fUHJvZHVjdCBTZXJ2aWNlIj48cmVjdCBmaWxsPSIjRjFGMUYxIiBoZWlnaHQ9IjM0Ljk4NDQiIHJ4PSIyLjUiIHJ5PSIyLjUiIHN0eWxlPSJzdHJva2U6IzE4MTgxODtzdHJva2Utd2lkdGg6MC41OyIgd2lkdGg9IjEyNSIgeD0iNyIgeT0iNDYxLjI2Ii8+PHRleHQgZmlsbD0iIzAwMDAwMCIgZm9udC1mYW1pbHk9InNhbnMtc2VyaWYiIGZvbnQtc2l6ZT0iMTQiIGxlbmd0aEFkanVzdD0ic3BhY2luZyIgdGV4dExlbmd0aD0iMTA1IiB4PSIxNyIgeT0iNDg0LjQ5NDQiPlByb2R1Y3QgU2VydmljZTwvdGV4dD48L2c+PCEtLWVudGl0eSBPcmRlciBTZXJ2aWNlLS0+PGcgaWQ9ImVsZW1fT3JkZXIgU2VydmljZSI+PHJlY3QgZmlsbD0iI0YxRjFGMSIgaGVpZ2h0PSIzNC45ODQ0IiByeD0iMi41IiByeT0iMi41IiBzdHlsZT0ic3Ryb2tlOiMxODE4MTg7c3Ryb2tlLXdpZHRoOjAuNTsiIHdpZHRoPSIxMTEiIHg9IjE0IiB5PSIzOTEuMjYiLz48dGV4dCBmaWxsPSIjMDAwMDAwIiBmb250LWZhbWlseT0ic2Fucy1zZXJpZiIgZm9udC1zaXplPSIxNCIgbGVuZ3RoQWRqdXN0PSJzcGFjaW5nIiB0ZXh0TGVuZ3RoPSI5MSIgeD0iMjQiIHk9IjQxNC40OTQ0Ij5PcmRlciBTZXJ2aWNlPC90ZXh0PjwvZz48IS0tZW50aXR5IGN1c3QtLT48ZyBpZD0iZWxlbV9jdXN0Ij48ZWxsaXBzZSBjeD0iNjkuNSIgY3k9IjI4OS43NiIgZmlsbD0iI0YxRjFGMSIgcng9IjgiIHJ5PSI4IiBzdHlsZT0ic3Ryb2tlOiMxODE4MTg7c3Ryb2tlLXdpZHRoOjAuNTsiLz48cGF0aCBkPSJNNjkuNSwyOTcuNzYgTDY5LjUsMzI0Ljc2IE01Ni41LDMwNS43NiBMODIuNSwzMDUuNzYgTTY5LjUsMzI0Ljc2IEw1Ni41LDMzOS43NiBNNjkuNSwzMjQuNzYgTDgyLjUsMzM5Ljc2ICIgZmlsbD0ibm9uZSIgc3R5bGU9InN0cm9rZTojMTgxODE4O3N0cm9rZS13aWR0aDowLjU7Ii8+PHRleHQgZmlsbD0iIzAwMDAwMCIgZm9udC1mYW1pbHk9InNhbnMtc2VyaWYiIGZvbnQtc2l6ZT0iMTQiIGxlbmd0aEFkanVzdD0ic3BhY2luZyIgdGV4dExlbmd0aD0iNTciIHg9IjQxIiB5PSIzNTQuNDk0NCI+Q3VzdG9tZXI8L3RleHQ+PC9nPjwhLS1lbnRpdHkgYWRtaW4tLT48ZyBpZD0iZWxlbV9hZG1pbiI+PGVsbGlwc2UgY3g9IjcyMC41IiBjeT0iNjUuNzYiIGZpbGw9IiNGMUYxRjEiIHJ4PSI4IiByeT0iOCIgc3R5bGU9InN0cm9rZTojMTgxODE4O3N0cm9rZS13aWR0aDowLjU7Ii8+PHBhdGggZD0iTTcyMC41LDczLjc2IEw3MjAuNSwxMDAuNzYgTTcwNy41LDgxLjc2IEw3MzMuNSw4MS43NiBNNzIwLjUsMTAwLjc2IEw3MDcuNSwxMTUuNzYgTTcyMC41LDEwMC43NiBMNzMzLjUsMTE1Ljc2ICIgZmlsbD0ibm9uZSIgc3R5bGU9InN0cm9rZTojMTgxODE4O3N0cm9rZS13aWR0aDowLjU7Ii8+PHRleHQgZmlsbD0iIzAwMDAwMCIgZm9udC1mYW1pbHk9InNhbnMtc2VyaWYiIGZvbnQtc2l6ZT0iMTQiIGxlbmd0aEFkanVzdD0ic3BhY2luZyIgdGV4dExlbmd0aD0iMzYiIHg9IjcwMi41IiB5PSIxMzAuNDk0NCI+QWRtaW48L3RleHQ+PC9nPjxnIGlkPSJlbGVtX1ZpZXcgUHJvZHVjdCBDYXRhbG9nIj48ZWxsaXBzZSBjeD0iMjgwLjE3OTYiIGN5PSIxMzcuNzk1OSIgZmlsbD0iI0YxRjFGMSIgcng9Ijg4LjE3OTYiIHJ5PSIyMC4wMzU5IiBzdHlsZT0ic3Ryb2tlOiMxODE4MTg7c3Ryb2tlLXdpZHRoOjAuNTsiLz48dGV4dCBmaWxsPSIjMDAwMDAwIiBmb250LWZhbWlseT0ic2Fucy1zZXJpZiIgZm9udC1zaXplPSIxNCIgbGVuZ3RoQWRqdXN0PSJzcGFjaW5nIiB0ZXh0TGVuZ3RoPSIxNDEiIHg9IjIwOS42Nzk2IiB5PSIxNDEuNTM4MSI+VmlldyBQcm9kdWN0IENhdGFsb2c8L3RleHQ+PC9nPjxnIGlkPSJlbGVtX1ZpZXcgUHJvZHVjdCBEZXRhaWxzIj48ZWxsaXBzZSBjeD0iNTE2LjE3OTYiIGN5PSIxNzQuNzk1OSIgZmlsbD0iI0YxRjFGMSIgcng9Ijg4LjE3OTYiIHJ5PSIyMC4wMzU5IiBzdHlsZT0ic3Ryb2tlOiMxODE4MTg7c3Ryb2tlLXdpZHRoOjAuNTsiLz48dGV4dCBmaWxsPSIjMDAwMDAwIiBmb250LWZhbWlseT0ic2Fucy1zZXJpZiIgZm9udC1zaXplPSIxNCIgbGVuZ3RoQWRqdXN0PSJzcGFjaW5nIiB0ZXh0TGVuZ3RoPSIxNDEiIHg9IjQ0NS42Nzk2IiB5PSIxNzguNTM4MSI+VmlldyBQcm9kdWN0IERldGFpbHM8L3RleHQ+PC9nPjxnIGlkPSJlbGVtX0FkZCBQcm9kdWN0IHRvIENhcnQiPjxlbGxpcHNlIGN4PSI1MTYuMTA2MiIgY3k9Ijk5LjU4MTIiIGZpbGw9IiNGMUYxRjEiIHJ4PSI4NC42MDYyIiByeT0iMTkuMzIxMiIgc3R5bGU9InN0cm9rZTojMTgxODE4O3N0cm9rZS13aWR0aDowLjU7Ii8+PHRleHQgZmlsbD0iIzAwMDAwMCIgZm9udC1mYW1pbHk9InNhbnMtc2VyaWYiIGZvbnQtc2l6ZT0iMTQiIGxlbmd0aEFkanVzdD0ic3BhY2luZyIgdGV4dExlbmd0aD0iMTMzIiB4PSI0NDkuNjA2MiIgeT0iMTAzLjMyMzQiPkFkZCBQcm9kdWN0IHRvIENhcnQ8L3RleHQ+PC9nPjxnIGlkPSJlbGVtX1ZpZXcgQ2FydCI+PGVsbGlwc2UgY3g9IjcyMC4zNjAzIiBjeT0iMTgwLjkzMjEiIGZpbGw9IiNGMUYxRjEiIHJ4PSI1Ni4zNjAzIiByeT0iMTMuNjcyMSIgc3R5bGU9InN0cm9rZTojMTgxODE4O3N0cm9rZS13aWR0aDowLjU7Ii8+PHRleHQgZmlsbD0iIzAwMDAwMCIgZm9udC1mYW1pbHk9InNhbnMtc2VyaWYiIGZvbnQtc2l6ZT0iMTQiIGxlbmd0aEFkanVzdD0ic3BhY2luZyIgdGV4dExlbmd0aD0iNjQiIHg9IjY4OC4zNjAzIiB5PSIxODQuNjc0MiI+VmlldyBDYXJ0PC90ZXh0PjwvZz48IS0tbGluayBjdXN0IHRvIEJyb3dzZSBQcm9kdWN0cy0tPjxnIGlkPSJsaW5rX2N1c3RfQnJvd3NlIFByb2R1Y3RzIj48cGF0aCBkPSJNOTguMjIsMzE4LjI3IEMyMTQuODksMzE2LjIgNjYyLjI5MDksMzA4LjI4NjMgODM5Ljk4MDksMzA1LjEzNjMgIiBmaWxsPSJub25lIiBpZD0iY3VzdC10by1Ccm93c2UgUHJvZHVjdHMiIHN0eWxlPSJzdHJva2U6IzE4MTgxODtzdHJva2Utd2lkdGg6MS4wOyIvPjxwb2x5Z29uIGZpbGw9IiMxODE4MTgiIHBvaW50cz0iODQ1Ljk4LDMwNS4wMyw4MzYuOTEwNSwzMDEuMTkwMiw4NDAuOTgwOCwzMDUuMTE4Niw4MzcuMDUyMywzMDkuMTg4OSw4NDUuOTgsMzA1LjAzIiBzdHlsZT0ic3Ryb2tlOiMxODE4MTg7c3Ryb2tlLXdpZHRoOjEuMDsiLz48L2c+PCEtLWxpbmsgY3VzdCB0byBBZGQgdG8gQ2FydC0tPjxnIGlkPSJsaW5rX2N1c3RfQWRkIHRvIENhcnQiPjxwYXRoIGQ9Ik05OC4yMiwzMjAuNDYgQzIxOC4wMywzMjcuODEgNjg2LjkzMTMsMzU2LjU4MjcgODUzLjcyMTMsMzY2LjgxMjcgIiBmaWxsPSJub25lIiBpZD0iY3VzdC10by1BZGQgdG8gQ2FydCIgc3R5bGU9InN0cm9rZTojMTgxODE4O3N0cm9rZS13aWR0aDoxLjA7Ii8+PHBvbHlnb24gZmlsbD0iIzE4MTgxOCIgcG9pbnRzPSI4NTkuNzEsMzY3LjE4LDg1MC45NzE4LDM2Mi42MzY1LDg1NC43MTk0LDM2Ni44NzM5LDg1MC40ODIsMzcwLjYyMTUsODU5LjcxLDM2Ny4xOCIgc3R5bGU9InN0cm9rZTojMTgxODE4O3N0cm9rZS13aWR0aDoxLjA7Ii8+PC9nPjwhLS1saW5rIGN1c3QgdG8gQ2hlY2tvdXQtLT48ZyBpZD0ibGlua19jdXN0X0NoZWNrb3V0Ij48cGF0aCBkPSJNOTguMjEsMzEwLjQ3IEMxMjIuNjYsMzAzLjUxIDE1OS4zOCwyOTMuODkgMTkyLDI4OC43NiBDNDQzLjgyLDI0OS4xMyA3NDMuNjMwOCwyNDAuMzg5OSA4NjEuOTMwOCwyMzguNDE5OSAiIGZpbGw9Im5vbmUiIGlkPSJjdXN0LXRvLUNoZWNrb3V0IiBzdHlsZT0ic3Ryb2tlOiMxODE4MTg7c3Ryb2tlLXdpZHRoOjEuMDsiLz48cG9seWdvbiBmaWxsPSIjMTgxODE4IiBwb2ludHM9Ijg2Ny45MywyMzguMzIsODU4Ljg2NDYsMjM0LjQ3MDQsODYyLjkzMDcsMjM4LjQwMzMsODU4Ljk5NzgsMjQyLjQ2OTMsODY3LjkzLDIzOC4zMiIgc3R5bGU9InN0cm9rZTojMTgxODE4O3N0cm9rZS13aWR0aDoxLjA7Ii8+PC9nPjwhLS1saW5rIGN1c3QgdG8gVmlldyBPcmRlciBIaXN0b3J5LS0+PGcgaWQ9ImxpbmtfY3VzdF9WaWV3IE9yZGVyIEhpc3RvcnkiPjxwYXRoIGQ9Ik05OC4zOCwzMjUuMDkgQzEyMi45NCwzMzAuNTIgMTU5LjcyLDMzOC4zMSAxOTIsMzQzLjc2IEM0MjkuNDEsMzgzLjgzIDcwNi44OTY4LDQxNi40ODY0IDgzOC4zNTY4LDQzMS4xMTY0ICIgZmlsbD0ibm9uZSIgaWQ9ImN1c3QtdG8tVmlldyBPcmRlciBIaXN0b3J5IiBzdHlsZT0ic3Ryb2tlOiMxODE4MTg7c3Ryb2tlLXdpZHRoOjEuMDsiLz48cG9seWdvbiBmaWxsPSIjMTgxODE4IiBwb2ludHM9Ijg0NC4zMiw0MzEuNzgsODM1LjgxNzYsNDI2LjgwOTEsODM5LjM1MDcsNDMxLjIyNyw4MzQuOTMyOCw0MzQuNzYsODQ0LjMyLDQzMS43OCIgc3R5bGU9InN0cm9rZTojMTgxODE4O3N0cm9rZS13aWR0aDoxLjA7Ii8+PC9nPjwhLS1saW5rIGFkbWluIHRvIE1hbmFnZSBQcm9kdWN0cy0tPjxnIGlkPSJsaW5rX2FkbWluX01hbmFnZSBQcm9kdWN0cyI+PHBhdGggZD0iTTczOC41OSw5NS43MiBDNzYyLjg3LDk3LjA4IDgwMi43Njk0LDk5LjMwNDUgODQyLjA0OTQsMTAxLjUwNDUgIiBmaWxsPSJub25lIiBpZD0iYWRtaW4tdG8tTWFuYWdlIFByb2R1Y3RzIiBzdHlsZT0ic3Ryb2tlOiMxODE4MTg7c3Ryb2tlLXdpZHRoOjEuMDsiLz48cG9seWdvbiBmaWxsPSIjMTgxODE4IiBwb2ludHM9Ijg0OC4wNCwxMDEuODQsODM5LjI3NzgsOTcuMzQzLDg0My4wNDc4LDEwMS41NjA0LDgzOC44MzA0LDEwNS4zMzA1LDg0OC4wNCwxMDEuODQiIHN0eWxlPSJzdHJva2U6IzE4MTgxODtzdHJva2Utd2lkdGg6MS4wOyIvPjwvZz48IS0tbGluayBhZG1pbiB0byBNYW5hZ2UgT3JkZXJzLS0+PGcgaWQ9ImxpbmtfYWRtaW5fTWFuYWdlIE9yZGVycyI+PHBhdGggZD0iTTczOC42NSwxMDQuNDMgQzc1Ni43NiwxMTQuMzkgNzg2LjMxLDEyOS45NCA4MTMsMTQwLjc2IEM4MzMuMSwxNDguOTEgODUwLjI2NzgsMTU0LjYxMzQgODY5LjU0NzgsMTYwLjMzMzQgIiBmaWxsPSJub25lIiBpZD0iYWRtaW4tdG8tTWFuYWdlIE9yZGVycyIgc3R5bGU9InN0cm9rZTojMTgxODE4O3N0cm9rZS13aWR0aDoxLjA7Ii8+PHBvbHlnb24gZmlsbD0iIzE4MTgxOCIgcG9pbnRzPSI4NzUuMywxNjIuMDQsODY3LjgwOTQsMTU1LjY0NTQsODcwLjUwNjUsMTYwLjYxNzksODY1LjUzNCwxNjMuMzE0OSw4NzUuMywxNjIuMDQiIHN0eWxlPSJzdHJva2U6IzE4MTgxODtzdHJva2Utd2lkdGg6MS4wOyIvPjwvZz48IS0tbGluayBjdXN0IHRvIFZpZXcgUHJvZHVjdCBDYXRhbG9nLS0+PGcgaWQ9ImxpbmtfY3VzdF9WaWV3IFByb2R1Y3QgQ2F0YWxvZyI+PHBhdGggZD0iTTk4LjE5LDI5NC43MiBDMTM5Ljk1LDI1OC40NyAyMTMuNzA4NywxOTQuNDMyOSAyNTIuMDk4NywxNjEuMTEyOSAiIGZpbGw9Im5vbmUiIGlkPSJjdXN0LXRvLVZpZXcgUHJvZHVjdCBDYXRhbG9nIiBzdHlsZT0ic3Ryb2tlOiMxODE4MTg7c3Ryb2tlLXdpZHRoOjEuMDsiLz48cG9seWdvbiBmaWxsPSIjMTgxODE4IiBwb2ludHM9IjI1Ni42MywxNTcuMTgsMjQ3LjIxMTIsMTYwLjA1ODQsMjUyLjg1MzksMTYwLjQ1NzQsMjUyLjQ1NSwxNjYuMTAwMiwyNTYuNjMsMTU3LjE4IiBzdHlsZT0ic3Ryb2tlOiMxODE4MTg7c3Ryb2tlLXdpZHRoOjEuMDsiLz48L2c+PCEtLWxpbmsgVmlldyBQcm9kdWN0IENhdGFsb2cgdG8gTWFuYWdlIFByb2R1Y3RzLS0+PGcgaWQ9ImxpbmtfVmlldyBQcm9kdWN0IENhdGFsb2dfTWFuYWdlIFByb2R1Y3RzIj48cGF0aCBkPSJNMzEwLjAzLDExOC43OSBDMzM4Ljc0LDEwMS4wNiAzODQuNTUsNzUuNDYgNDI4LDYyLjc2IEM1NzcuMiwxOS4xMyA2MjUuMjYsNiA3NzcsMzkuNzYgQzgyMCw0OS4zMyA4NjAuMjU2Miw3MC4zOTc3IDg4Ny41NjYyLDg2LjY3NzcgIiBmaWxsPSJub25lIiBpZD0iVmlldyBQcm9kdWN0IENhdGFsb2ctdG8tTWFuYWdlIFByb2R1Y3RzIiBzdHlsZT0ic3Ryb2tlOiMxODE4MTg7c3Ryb2tlLXdpZHRoOjEuMDsiLz48cG9seWdvbiBmaWxsPSIjMTgxODE4IiBwb2ludHM9Ijg5Mi43Miw4OS43NSw4ODcuMDM3NSw4MS43MDU4LDg4OC40MjUyLDg3LjE4OTgsODgyLjk0MTIsODguNTc3NSw4OTIuNzIsODkuNzUiIHN0eWxlPSJzdHJva2U6IzE4MTgxODtzdHJva2Utd2lkdGg6MS4wOyIvPjwvZz48IS0tbGluayBWaWV3IFByb2R1Y3QgQ2F0YWxvZyB0byBWaWV3IFByb2R1Y3QgRGV0YWlscy0tPjxnIGlkPSJsaW5rX1ZpZXcgUHJvZHVjdCBDYXRhbG9nX1ZpZXcgUHJvZHVjdCBEZXRhaWxzIj48cGF0aCBkPSJNMzUyLjgsMTQ5LjExIEMzODEuNTUsMTUzLjY2IDQwOC42NzM4LDE1Ny45NDE4IDQzNy40MTM4LDE2Mi40OTE4ICIgZmlsbD0ibm9uZSIgaWQ9IlZpZXcgUHJvZHVjdCBDYXRhbG9nLXRvLVZpZXcgUHJvZHVjdCBEZXRhaWxzIiBzdHlsZT0ic3Ryb2tlOiMxODE4MTg7c3Ryb2tlLXdpZHRoOjEuMDsiLz48cG9seWdvbiBmaWxsPSIjMTgxODE4IiBwb2ludHM9IjQ0My4zNCwxNjMuNDMsNDM1LjA3NjIsMTU4LjA3MTksNDM4LjQwMTUsMTYyLjY0ODIsNDMzLjgyNTIsMTY1Ljk3MzUsNDQzLjM0LDE2My40MyIgc3R5bGU9InN0cm9rZTojMTgxODE4O3N0cm9rZS13aWR0aDoxLjA7Ii8+PC9nPjwhLS1saW5rIFZpZXcgUHJvZHVjdCBDYXRhbG9nIHRvIEFkZCBQcm9kdWN0IHRvIENhcnQtLT48ZyBpZD0ibGlua19WaWV3IFByb2R1Y3QgQ2F0YWxvZ19BZGQgUHJvZHVjdCB0byBDYXJ0Ij48cGF0aCBkPSJNMzUyLjE2LDEyNi4yIEMzODIuMDEsMTIxLjM2IDQxMC42Njc0LDExNi43MDA3IDQ0MC4yNTc0LDExMS45MDA3ICIgZmlsbD0ibm9uZSIgaWQ9IlZpZXcgUHJvZHVjdCBDYXRhbG9nLXRvLUFkZCBQcm9kdWN0IHRvIENhcnQiIHN0eWxlPSJzdHJva2U6IzE4MTgxODtzdHJva2Utd2lkdGg6MS4wOyIvPjxwb2x5Z29uIGZpbGw9IiMxODE4MTgiIHBvaW50cz0iNDQ2LjE4LDExMC45NCw0MzYuNjU1NiwxMDguNDMyNyw0NDEuMjQ0NSwxMTEuNzQwNiw0MzcuOTM2NiwxMTYuMzI5NSw0NDYuMTgsMTEwLjk0IiBzdHlsZT0ic3Ryb2tlOiMxODE4MTg7c3Ryb2tlLXdpZHRoOjEuMDsiLz48L2c+PCEtLWxpbmsgQWRkIFByb2R1Y3QgdG8gQ2FydCB0byBWaWV3IENhcnQtLT48ZyBpZD0ibGlua19BZGQgUHJvZHVjdCB0byBDYXJ0X1ZpZXcgQ2FydCI+PHBhdGggZD0iTTU1OS40NSwxMTYuNzQgQzU5OC43NywxMzIuNDcgNjUwLjYwOTMsMTUzLjIwMTQgNjg0LjkyOTMsMTY2LjkzMTQgIiBmaWxsPSJub25lIiBpZD0iQWRkIFByb2R1Y3QgdG8gQ2FydC10by1WaWV3IENhcnQiIHN0eWxlPSJzdHJva2U6IzE4MTgxODtzdHJva2Utd2lkdGg6MS4wOyIvPjxwb2x5Z29uIGZpbGw9IiMxODE4MTgiIHBvaW50cz0iNjkwLjUsMTY5LjE2LDY4My42Mjk2LDE2Mi4xMDMyLDY4NS44NTc3LDE2Ny4zMDI4LDY4MC42NTgxLDE2OS41MzA5LDY5MC41LDE2OS4xNiIgc3R5bGU9InN0cm9rZTojMTgxODE4O3N0cm9rZS13aWR0aDoxLjA7Ii8+PC9nPjwhLS1saW5rIFZpZXcgQ2FydCB0byBDaGVja291dC0tPjxnIGlkPSJsaW5rX1ZpZXcgQ2FydF9DaGVja291dCI+PHBhdGggZD0iTTc1Ny4wOCwxOTEuMDggQzc5My4xNCwyMDEuNTQgODQyLjc1OCwyMTUuOTI2OCA4NzguMjI4LDIyNi4yMjY4ICIgZmlsbD0ibm9uZSIgaWQ9IlZpZXcgQ2FydC10by1DaGVja291dCIgc3R5bGU9InN0cm9rZTojMTgxODE4O3N0cm9rZS13aWR0aDoxLjA7Ii8+PHBvbHlnb24gZmlsbD0iIzE4MTgxOCIgcG9pbnRzPSI4ODMuOTksMjI3LjksODc2LjQ2MjUsMjIxLjU0ODksODc5LjE4ODQsMjI2LjUwNTcsODc0LjIzMTYsMjI5LjIzMTUsODgzLjk5LDIyNy45IiBzdHlsZT0ic3Ryb2tlOiMxODE4MTg7c3Ryb2tlLXdpZHRoOjEuMDsiLz48L2c+PCEtLVNSQz1bVkw3MVFpQ20zQnR4QXFIRndvNl9DNlpKbUl2WlhTN2ttYlBKQ29TMk1MYVBQVnpVRXNiN2Q2TzU3U0h4VWRmRkFEMTFHSGQ0RHFTNXZ1TWlVa3VDTWNNMWtlX0FCR2JXMTlsd0F4bm5oVXlvWGhhbjlla21RbUIxd2dNb3QyUTU5VFc3cjBEQmt1QXBXSzRFTFZLQ0pybFhLcW9xaUVram5kTDFSZnBCU01lS0JPZHdJRlFCLW5kd3dVYTR4LTlJbjVVVmlpZkZ2YkNEb1NRUEQtb21BVnRrc001N3Vkd0JRd3VRLTIzdnpmUjZJLXVOYmc4bnBnOWF1WkF4dVVQS2VzQldQY3NNdU55a1VaWFRLM2pJejI0LXRmLVZTNkYtZGM0TXVPZDVFM1JmUHUteDAwMDBdLS0+PC9nPjwvc3ZnPg==;" vertex="1" parent="1">
            <mxGeometry x="613" y="-95.36999999999999" width="1324.98" height="650.19" as="geometry" />
          </mxCell>
        </UserObject>
        <UserObject label="" plantUmlData="{&#xa;  &quot;data&quot;: &quot;@startuml\nleft to right direction\nactor Customer as cust\nactor \&quot;Bank Teller\&quot; as teller\nactor Manager as mgr\n\nrectangle \&quot;Banking System\&quot; {\n  cust --&gt; (View Account Balance)\n  cust --&gt; (Transfer Funds)\n  cust --&gt; (Pay Bills)\n  \n  teller --&gt; (Deposit/Withdraw Funds)\n  teller --&gt; (Open/Close Account)\n  \n  mgr --&gt; (Generate Reports)\n  mgr --&gt; (Approve Transactions)\n}\n\nrectangle \&quot;Account Service\&quot; {\n  (View Account Balance)\n  (Transfer Funds)\n  (Pay Bills)\n}\n\nrectangle \&quot;Transaction Service\&quot; {\n  (Deposit/Withdraw Funds)\n  (Approve Transactions)\n}\n\nrectangle \&quot;Account Management Service\&quot; {\n  (Open/Close Account)\n}\n\nrectangle \&quot;Reporting Service\&quot; {\n  (Generate Reports)\n}\n\ncust --&gt; (View Account Details)\n(View Account Details) --&gt; (View Account Balance)\n(View Account Details) --&gt; (Transfer Funds)\n(View Account Details) --&gt; (Pay Bills)\n\n(View Account Balance) --&gt; (View Transaction History)\n(Transfer Funds) --&gt; (View Transaction History)\n(Deposit/Withdraw Funds) --&gt; (View Transaction History)\n(View Transaction History) --&gt; (Generate Reports)\n\n(Open/Close Account) --&gt; (Approve Transactions)\n@enduml\n&quot;,&#xa;  &quot;format&quot;: &quot;svg&quot;&#xa;}" id="ke1pgu3JhG9WEocOsTO3-6">
          <mxCell style="shape=image;noLabel=1;verticalAlign=top;aspect=fixed;imageAspect=0;image=data:image/svg+xml,PD94bWwgdmVyc2lvbj0iMS4wIiBlbmNvZGluZz0idXMtYXNjaWkiIHN0YW5kYWxvbmU9Im5vIj8+PHN2ZyB4bWxucz0iaHR0cDovL3d3dy53My5vcmcvMjAwMC9zdmciIHhtbG5zOnhsaW5rPSJodHRwOi8vd3d3LnczLm9yZy8xOTk5L3hsaW5rIiBjb250ZW50U3R5bGVUeXBlPSJ0ZXh0L2NzcyIgaGVpZ2h0PSI1NjBweCIgcHJlc2VydmVBc3BlY3RSYXRpbz0ibm9uZSIgc3R5bGU9IndpZHRoOjk2NXB4O2hlaWdodDo1NjBweDtiYWNrZ3JvdW5kOiNGRkZGRkY7IiB2ZXJzaW9uPSIxLjEiIHZpZXdCb3g9IjAgMCA5NjUgNTYwIiB3aWR0aD0iOTY1cHgiIHpvb21BbmRQYW49Im1hZ25pZnkiPjxkZWZzLz48Zz48IS0tY2x1c3RlciBCYW5raW5nIFN5c3RlbS0tPjxnIGlkPSJjbHVzdGVyX0JhbmtpbmcgU3lzdGVtIj48cmVjdCBmaWxsPSJub25lIiBoZWlnaHQ9IjQ0MCIgcng9IjIuNSIgcnk9IjIuNSIgc3R5bGU9InN0cm9rZTojMTgxODE4O3N0cm9rZS13aWR0aDoxLjA7IiB3aWR0aD0iNDY5LjUiIHg9IjQ5MCIgeT0iNjcuNSIvPjx0ZXh0IGZpbGw9IiMwMDAwMDAiIGZvbnQtZmFtaWx5PSJzYW5zLXNlcmlmIiBmb250LXNpemU9IjE0IiBmb250LXdlaWdodD0iYm9sZCIgbGVuZ3RoQWRqdXN0PSJzcGFjaW5nIiB0ZXh0TGVuZ3RoPSI5OSIgeD0iNjc1LjI1IiB5PSI4Mi43MzQ0Ij5CYW5raW5nIFN5c3RlbTwvdGV4dD48L2c+PGcgaWQ9ImVsZW1fVmlldyBBY2NvdW50IEJhbGFuY2UiPjxlbGxpcHNlIGN4PSI2MDAuNjc5NiIgY3k9IjEyMC41MzU5IiBmaWxsPSIjRjFGMUYxIiByeD0iODguMTc5NiIgcnk9IjIwLjAzNTkiIHN0eWxlPSJzdHJva2U6IzE4MTgxODtzdHJva2Utd2lkdGg6MC41OyIvPjx0ZXh0IGZpbGw9IiMwMDAwMDAiIGZvbnQtZmFtaWx5PSJzYW5zLXNlcmlmIiBmb250LXNpemU9IjE0IiBsZW5ndGhBZGp1c3Q9InNwYWNpbmciIHRleHRMZW5ndGg9IjE0MSIgeD0iNTMwLjE3OTYiIHk9IjEyNC4yNzgxIj5WaWV3IEFjY291bnQgQmFsYW5jZTwvdGV4dD48L2c+PGcgaWQ9ImVsZW1fVHJhbnNmZXIgRnVuZHMiPjxlbGxpcHNlIGN4PSI2MDAuNTQ1NiIgY3k9IjI1NC4zMDkxIiBmaWxsPSIjRjFGMUYxIiByeD0iNjkuNTQ1NiIgcnk9IjE2LjMwOTEiIHN0eWxlPSJzdHJva2U6IzE4MTgxODtzdHJva2Utd2lkdGg6MC41OyIvPjx0ZXh0IGZpbGw9IiMwMDAwMDAiIGZvbnQtZmFtaWx5PSJzYW5zLXNlcmlmIiBmb250LXNpemU9IjE0IiBsZW5ndGhBZGp1c3Q9InNwYWNpbmciIHRleHRMZW5ndGg9Ijk4IiB4PSI1NTEuNTQ1NiIgeT0iMjU4LjA1MTMiPlRyYW5zZmVyIEZ1bmRzPC90ZXh0PjwvZz48ZyBpZD0iZWxlbV9QYXkgQmlsbHMiPjxlbGxpcHNlIGN4PSI2MDAuNTA1NCIgY3k9IjE4OS42MDExIiBmaWxsPSIjRjFGMUYxIiByeD0iNTYuMDA1NCIgcnk9IjEzLjYwMTEiIHN0eWxlPSJzdHJva2U6IzE4MTgxODtzdHJva2Utd2lkdGg6MC41OyIvPjx0ZXh0IGZpbGw9IiMwMDAwMDAiIGZvbnQtZmFtaWx5PSJzYW5zLXNlcmlmIiBmb250LXNpemU9IjE0IiBsZW5ndGhBZGp1c3Q9InNwYWNpbmciIHRleHRMZW5ndGg9IjYzIiB4PSI1NjkuMDA1NCIgeT0iMTkzLjM0MzMiPlBheSBCaWxsczwvdGV4dD48L2c+PGcgaWQ9ImVsZW1fRGVwb3NpdC9XaXRoZHJhdyBGdW5kcyI+PGVsbGlwc2UgY3g9IjYwMC41MTgyIiBjeT0iMzI3LjMwMzYiIGZpbGw9IiNGMUYxRjEiIHJ4PSI5NC41MTgyIiByeT0iMjEuMzAzNiIgc3R5bGU9InN0cm9rZTojMTgxODE4O3N0cm9rZS13aWR0aDowLjU7Ii8+PHRleHQgZmlsbD0iIzAwMDAwMCIgZm9udC1mYW1pbHk9InNhbnMtc2VyaWYiIGZvbnQtc2l6ZT0iMTQiIGxlbmd0aEFkanVzdD0ic3BhY2luZyIgdGV4dExlbmd0aD0iMTU1IiB4PSI1MjMuMDE4MiIgeT0iMzMxLjA0NTgiPkRlcG9zaXQvV2l0aGRyYXcgRnVuZHM8L3RleHQ+PC9nPjxnIGlkPSJlbGVtX09wZW4vQ2xvc2UgQWNjb3VudCI+PGVsbGlwc2UgY3g9IjYwMC41MTMyIiBjeT0iNDAyLjcwMjYiIGZpbGw9IiNGMUYxRjEiIHJ4PSI4MS41MTMyIiByeT0iMTguNzAyNiIgc3R5bGU9InN0cm9rZTojMTgxODE4O3N0cm9rZS13aWR0aDowLjU7Ii8+PHRleHQgZmlsbD0iIzAwMDAwMCIgZm9udC1mYW1pbHk9InNhbnMtc2VyaWYiIGZvbnQtc2l6ZT0iMTQiIGxlbmd0aEFkanVzdD0ic3BhY2luZyIgdGV4dExlbmd0aD0iMTI2IiB4PSI1MzcuNTEzMiIgeT0iNDA2LjQ0NDgiPk9wZW4vQ2xvc2UgQWNjb3VudDwvdGV4dD48L2c+PGcgaWQ9ImVsZW1fR2VuZXJhdGUgUmVwb3J0cyI+PGVsbGlwc2UgY3g9IjYwMC40Mzg0IiBjeT0iNDczLjQ4NzciIGZpbGw9IiNGMUYxRjEiIHJ4PSI3NS40Mzg0IiByeT0iMTcuNDg3NyIgc3R5bGU9InN0cm9rZTojMTgxODE4O3N0cm9rZS13aWR0aDowLjU7Ii8+PHRleHQgZmlsbD0iIzAwMDAwMCIgZm9udC1mYW1pbHk9InNhbnMtc2VyaWYiIGZvbnQtc2l6ZT0iMTQiIGxlbmd0aEFkanVzdD0ic3BhY2luZyIgdGV4dExlbmd0aD0iMTEyIiB4PSI1NDQuNDM4NCIgeT0iNDc3LjIyOTkiPkdlbmVyYXRlIFJlcG9ydHM8L3RleHQ+PC9nPjxnIGlkPSJlbGVtX0FwcHJvdmUgVHJhbnNhY3Rpb25zIj48ZWxsaXBzZSBjeD0iODU2LjIzMDkiIGN5PSI0MzcuNDQ2MiIgZmlsbD0iI0YxRjFGMSIgcng9Ijg3LjczMDkiIHJ5PSIxOS45NDYyIiBzdHlsZT0ic3Ryb2tlOiMxODE4MTg7c3Ryb2tlLXdpZHRoOjAuNTsiLz48dGV4dCBmaWxsPSIjMDAwMDAwIiBmb250LWZhbWlseT0ic2Fucy1zZXJpZiIgZm9udC1zaXplPSIxNCIgbGVuZ3RoQWRqdXN0PSJzcGFjaW5nIiB0ZXh0TGVuZ3RoPSIxNDAiIHg9Ijc4Ni4yMzA5IiB5PSI0NDEuMTg4NCI+QXBwcm92ZSBUcmFuc2FjdGlvbnM8L3RleHQ+PC9nPjwhLS1lbnRpdHkgQWNjb3VudCBTZXJ2aWNlLS0+PGcgaWQ9ImVsZW1fQWNjb3VudCBTZXJ2aWNlIj48cmVjdCBmaWxsPSIjRjFGMUYxIiBoZWlnaHQ9IjM0Ljk4NDQiIHJ4PSIyLjUiIHJ5PSIyLjUiIHN0eWxlPSJzdHJva2U6IzE4MTgxODtzdHJva2Utd2lkdGg6MC41OyIgd2lkdGg9IjEyNSIgeD0iNDYiIHk9IjQ1MiIvPjx0ZXh0IGZpbGw9IiMwMDAwMDAiIGZvbnQtZmFtaWx5PSJzYW5zLXNlcmlmIiBmb250LXNpemU9IjE0IiBsZW5ndGhBZGp1c3Q9InNwYWNpbmciIHRleHRMZW5ndGg9IjEwNSIgeD0iNTYiIHk9IjQ3NS4yMzQ0Ij5BY2NvdW50IFNlcnZpY2U8L3RleHQ+PC9nPjwhLS1lbnRpdHkgVHJhbnNhY3Rpb24gU2VydmljZS0tPjxnIGlkPSJlbGVtX1RyYW5zYWN0aW9uIFNlcnZpY2UiPjxyZWN0IGZpbGw9IiNGMUYxRjEiIGhlaWdodD0iMzQuOTg0NCIgcng9IjIuNSIgcnk9IjIuNSIgc3R5bGU9InN0cm9rZTojMTgxODE4O3N0cm9rZS13aWR0aDowLjU7IiB3aWR0aD0iMTUzIiB4PSIzMiIgeT0iMzgyIi8+PHRleHQgZmlsbD0iIzAwMDAwMCIgZm9udC1mYW1pbHk9InNhbnMtc2VyaWYiIGZvbnQtc2l6ZT0iMTQiIGxlbmd0aEFkanVzdD0ic3BhY2luZyIgdGV4dExlbmd0aD0iMTMzIiB4PSI0MiIgeT0iNDA1LjIzNDQiPlRyYW5zYWN0aW9uIFNlcnZpY2U8L3RleHQ+PC9nPjwhLS1lbnRpdHkgQWNjb3VudCBNYW5hZ2VtZW50IFNlcnZpY2UtLT48ZyBpZD0iZWxlbV9BY2NvdW50IE1hbmFnZW1lbnQgU2VydmljZSI+PHJlY3QgZmlsbD0iI0YxRjFGMSIgaGVpZ2h0PSIzNC45ODQ0IiByeD0iMi41IiByeT0iMi41IiBzdHlsZT0ic3Ryb2tlOiMxODE4MTg7c3Ryb2tlLXdpZHRoOjAuNTsiIHdpZHRoPSIyMDMiIHg9IjciIHk9IjMxMiIvPjx0ZXh0IGZpbGw9IiMwMDAwMDAiIGZvbnQtZmFtaWx5PSJzYW5zLXNlcmlmIiBmb250LXNpemU9IjE0IiBsZW5ndGhBZGp1c3Q9InNwYWNpbmciIHRleHRMZW5ndGg9IjE4MyIgeD0iMTciIHk9IjMzNS4yMzQ0Ij5BY2NvdW50IE1hbmFnZW1lbnQgU2VydmljZTwvdGV4dD48L2c+PCEtLWVudGl0eSBSZXBvcnRpbmcgU2VydmljZS0tPjxnIGlkPSJlbGVtX1JlcG9ydGluZyBTZXJ2aWNlIj48cmVjdCBmaWxsPSIjRjFGMUYxIiBoZWlnaHQ9IjM0Ljk4NDQiIHJ4PSIyLjUiIHJ5PSIyLjUiIHN0eWxlPSJzdHJva2U6IzE4MTgxODtzdHJva2Utd2lkdGg6MC41OyIgd2lkdGg9IjEzOSIgeD0iMzkiIHk9IjI0MiIvPjx0ZXh0IGZpbGw9IiMwMDAwMDAiIGZvbnQtZmFtaWx5PSJzYW5zLXNlcmlmIiBmb250LXNpemU9IjE0IiBsZW5ndGhBZGp1c3Q9InNwYWNpbmciIHRleHRMZW5ndGg9IjExOSIgeD0iNDkiIHk9IjI2NS4yMzQ0Ij5SZXBvcnRpbmcgU2VydmljZTwvdGV4dD48L2c+PCEtLWVudGl0eSBjdXN0LS0+PGcgaWQ9ImVsZW1fY3VzdCI+PGVsbGlwc2UgY3g9IjEwOC41IiBjeT0iMTQwLjUiIGZpbGw9IiNGMUYxRjEiIHJ4PSI4IiByeT0iOCIgc3R5bGU9InN0cm9rZTojMTgxODE4O3N0cm9rZS13aWR0aDowLjU7Ii8+PHBhdGggZD0iTTEwOC41LDE0OC41IEwxMDguNSwxNzUuNSBNOTUuNSwxNTYuNSBMMTIxLjUsMTU2LjUgTTEwOC41LDE3NS41IEw5NS41LDE5MC41IE0xMDguNSwxNzUuNSBMMTIxLjUsMTkwLjUgIiBmaWxsPSJub25lIiBzdHlsZT0ic3Ryb2tlOiMxODE4MTg7c3Ryb2tlLXdpZHRoOjAuNTsiLz48dGV4dCBmaWxsPSIjMDAwMDAwIiBmb250LWZhbWlseT0ic2Fucy1zZXJpZiIgZm9udC1zaXplPSIxNCIgbGVuZ3RoQWRqdXN0PSJzcGFjaW5nIiB0ZXh0TGVuZ3RoPSI1NyIgeD0iODAiIHk9IjIwNS4yMzQ0Ij5DdXN0b21lcjwvdGV4dD48L2c+PCEtLWVudGl0eSB0ZWxsZXItLT48ZyBpZD0iZWxlbV90ZWxsZXIiPjxlbGxpcHNlIGN4PSIzNTgiIGN5PSIzNjEuNSIgZmlsbD0iI0YxRjFGMSIgcng9IjgiIHJ5PSI4IiBzdHlsZT0ic3Ryb2tlOiMxODE4MTg7c3Ryb2tlLXdpZHRoOjAuNTsiLz48cGF0aCBkPSJNMzU4LDM2OS41IEwzNTgsMzk2LjUgTTM0NSwzNzcuNSBMMzcxLDM3Ny41IE0zNTgsMzk2LjUgTDM0NSw0MTEuNSBNMzU4LDM5Ni41IEwzNzEsNDExLjUgIiBmaWxsPSJub25lIiBzdHlsZT0ic3Ryb2tlOiMxODE4MTg7c3Ryb2tlLXdpZHRoOjAuNTsiLz48dGV4dCBmaWxsPSIjMDAwMDAwIiBmb250LWZhbWlseT0ic2Fucy1zZXJpZiIgZm9udC1zaXplPSIxNCIgbGVuZ3RoQWRqdXN0PSJzcGFjaW5nIiB0ZXh0TGVuZ3RoPSI3NyIgeD0iMzE5LjUiIHk9IjQyNi4yMzQ0Ij5CYW5rIFRlbGxlcjwvdGV4dD48L2c+PCEtLWVudGl0eSBtZ3ItLT48ZyBpZD0iZWxlbV9tZ3IiPjxlbGxpcHNlIGN4PSIzNTgiIGN5PSI0ODcuNSIgZmlsbD0iI0YxRjFGMSIgcng9IjgiIHJ5PSI4IiBzdHlsZT0ic3Ryb2tlOiMxODE4MTg7c3Ryb2tlLXdpZHRoOjAuNTsiLz48cGF0aCBkPSJNMzU4LDQ5NS41IEwzNTgsNTIyLjUgTTM0NSw1MDMuNSBMMzcxLDUwMy41IE0zNTgsNTIyLjUgTDM0NSw1MzcuNSBNMzU4LDUyMi41IEwzNzEsNTM3LjUgIiBmaWxsPSJub25lIiBzdHlsZT0ic3Ryb2tlOiMxODE4MTg7c3Ryb2tlLXdpZHRoOjAuNTsiLz48dGV4dCBmaWxsPSIjMDAwMDAwIiBmb250LWZhbWlseT0ic2Fucy1zZXJpZiIgZm9udC1zaXplPSIxNCIgbGVuZ3RoQWRqdXN0PSJzcGFjaW5nIiB0ZXh0TGVuZ3RoPSI0OSIgeD0iMzMzLjUiIHk9IjU1Mi4yMzQ0Ij5NYW5hZ2VyPC90ZXh0PjwvZz48ZyBpZD0iZWxlbV9WaWV3IEFjY291bnQgRGV0YWlscyI+PGVsbGlwc2UgY3g9IjM1OC4xNzk2IiBjeT0iMTMyLjUzNTkiIGZpbGw9IiNGMUYxRjEiIHJ4PSI4OC4xNzk2IiByeT0iMjAuMDM1OSIgc3R5bGU9InN0cm9rZTojMTgxODE4O3N0cm9rZS13aWR0aDowLjU7Ii8+PHRleHQgZmlsbD0iIzAwMDAwMCIgZm9udC1mYW1pbHk9InNhbnMtc2VyaWYiIGZvbnQtc2l6ZT0iMTQiIGxlbmd0aEFkanVzdD0ic3BhY2luZyIgdGV4dExlbmd0aD0iMTQxIiB4PSIyODcuNjc5NiIgeT0iMTM2LjI3ODEiPlZpZXcgQWNjb3VudCBEZXRhaWxzPC90ZXh0PjwvZz48ZyBpZD0iZWxlbV9WaWV3IFRyYW5zYWN0aW9uIEhpc3RvcnkiPjxlbGxpcHNlIGN4PSI4NTUuOTQ2OCIgY3k9IjI4LjU4OTQiIGZpbGw9IiNGMUYxRjEiIHJ4PSIxMDAuOTQ2OCIgcnk9IjIyLjU4OTQiIHN0eWxlPSJzdHJva2U6IzE4MTgxODtzdHJva2Utd2lkdGg6MC41OyIvPjx0ZXh0IGZpbGw9IiMwMDAwMDAiIGZvbnQtZmFtaWx5PSJzYW5zLXNlcmlmIiBmb250LXNpemU9IjE0IiBsZW5ndGhBZGp1c3Q9InNwYWNpbmciIHRleHRMZW5ndGg9IjE2OSIgeD0iNzcxLjQ0NjgiIHk9IjMyLjMzMTUiPlZpZXcgVHJhbnNhY3Rpb24gSGlzdG9yeTwvdGV4dD48L2c+PCEtLWxpbmsgY3VzdCB0byBWaWV3IEFjY291bnQgQmFsYW5jZS0tPjxnIGlkPSJsaW5rX2N1c3RfVmlldyBBY2NvdW50IEJhbGFuY2UiPjxwYXRoIGQ9Ik0xMzcuMTQsMTUxLjk4IEMxNjguMSwxMzMuNDggMjIwLjQ2LDEwNS41IDI3MCw5NC41IEMzNjMuNDEsNzMuNzUgNDY5LjA2OTksODkuNzcxNyA1MzUuNDc5OSwxMDQuMzcxNyAiIGZpbGw9Im5vbmUiIGlkPSJjdXN0LXRvLVZpZXcgQWNjb3VudCBCYWxhbmNlIiBzdHlsZT0ic3Ryb2tlOiMxODE4MTg7c3Ryb2tlLXdpZHRoOjEuMDsiLz48cG9seWdvbiBmaWxsPSIjMTgxODE4IiBwb2ludHM9IjU0MS4zNCwxMDUuNjYsNTMzLjQwODgsOTkuODIwOCw1MzYuNDU2NiwxMDQuNTg2NCw1MzEuNjkxLDEwNy42MzQyLDU0MS4zNCwxMDUuNjYiIHN0eWxlPSJzdHJva2U6IzE4MTgxODtzdHJva2Utd2lkdGg6MS4wOyIvPjwvZz48IS0tbGluayBjdXN0IHRvIFRyYW5zZmVyIEZ1bmRzLS0+PGcgaWQ9ImxpbmtfY3VzdF9UcmFuc2ZlciBGdW5kcyI+PHBhdGggZD0iTTEzNy4yNSwxNzQuMzEgQzIxNS41LDE4Ny44OSA0MzMuMTA4MywyMjUuNjM0MSA1MzcuOTg4MywyNDMuODM0MSAiIGZpbGw9Im5vbmUiIGlkPSJjdXN0LXRvLVRyYW5zZmVyIEZ1bmRzIiBzdHlsZT0ic3Ryb2tlOiMxODE4MTg7c3Ryb2tlLXdpZHRoOjEuMDsiLz48cG9seWdvbiBmaWxsPSIjMTgxODE4IiBwb2ludHM9IjU0My45LDI0NC44Niw1MzUuNzE2NCwyMzkuMzgwMSw1MzguOTczNiwyNDQuMDA1MSw1MzQuMzQ4NiwyNDcuMjYyMyw1NDMuOSwyNDQuODYiIHN0eWxlPSJzdHJva2U6IzE4MTgxODtzdHJva2Utd2lkdGg6MS4wOyIvPjwvZz48IS0tbGluayBjdXN0IHRvIFBheSBCaWxscy0tPjxnIGlkPSJsaW5rX2N1c3RfUGF5IEJpbGxzIj48cGF0aCBkPSJNMTM3LjI1LDE3MC42MyBDMjE1LjgsMTczLjg0IDQzNC43NjUsMTgyLjc3NTMgNTM5LjEyNSwxODcuMDM1MyAiIGZpbGw9Im5vbmUiIGlkPSJjdXN0LXRvLVBheSBCaWxscyIgc3R5bGU9InN0cm9rZTojMTgxODE4O3N0cm9rZS13aWR0aDoxLjA7Ii8+PHBvbHlnb24gZmlsbD0iIzE4MTgxOCIgcG9pbnRzPSI1NDUuMTIsMTg3LjI4LDUzNi4yOTA2LDE4Mi45MTYzLDU0MC4xMjQyLDE4Ny4wNzYxLDUzNS45NjQzLDE5MC45MDk2LDU0NS4xMiwxODcuMjgiIHN0eWxlPSJzdHJva2U6IzE4MTgxODtzdHJva2Utd2lkdGg6MS4wOyIvPjwvZz48IS0tbGluayB0ZWxsZXIgdG8gRGVwb3NpdC9XaXRoZHJhdyBGdW5kcy0tPjxnIGlkPSJsaW5rX3RlbGxlcl9EZXBvc2l0L1dpdGhkcmF3IEZ1bmRzIj48cGF0aCBkPSJNMzk2LjU4LDM4MC42NiBDNDM0LjM2LDM3MC43NiA0ODcuNDQ1OCwzNTYuODUwMyA1MzIuMDc1OCwzNDUuMTYwMyAiIGZpbGw9Im5vbmUiIGlkPSJ0ZWxsZXItdG8tRGVwb3NpdC9XaXRoZHJhdyBGdW5kcyIgc3R5bGU9InN0cm9rZTojMTgxODE4O3N0cm9rZS13aWR0aDoxLjA7Ii8+PHBvbHlnb24gZmlsbD0iIzE4MTgxOCIgcG9pbnRzPSI1MzcuODgsMzQzLjY0LDUyOC4xNjAyLDM0Mi4wNTEsNTMzLjA0MzIsMzQ0LjkwNjksNTMwLjE4NzIsMzQ5Ljc4OTksNTM3Ljg4LDM0My42NCIgc3R5bGU9InN0cm9rZTojMTgxODE4O3N0cm9rZS13aWR0aDoxLjA7Ii8+PC9nPjwhLS1saW5rIHRlbGxlciB0byBPcGVuL0Nsb3NlIEFjY291bnQtLT48ZyBpZD0ibGlua190ZWxsZXJfT3Blbi9DbG9zZSBBY2NvdW50Ij48cGF0aCBkPSJNMzk2LjU4LDM5Mi4zOCBDNDI5LjYxLDM5NC4wMiA0NzIuNzY3NCwzOTYuMTgyMiA1MTQuNDI3NCwzOTguMjUyMiAiIGZpbGw9Im5vbmUiIGlkPSJ0ZWxsZXItdG8tT3Blbi9DbG9zZSBBY2NvdW50IiBzdHlsZT0ic3Ryb2tlOiMxODE4MTg7c3Ryb2tlLXdpZHRoOjEuMDsiLz48cG9seWdvbiBmaWxsPSIjMTgxODE4IiBwb2ludHM9IjUyMC40MiwzOTguNTUsNTExLjYyOTYsMzk0LjEwODMsNTE1LjQyNjIsMzk4LjMwMTksNTExLjIzMjYsNDAyLjA5ODQsNTIwLjQyLDM5OC41NSIgc3R5bGU9InN0cm9rZTojMTgxODE4O3N0cm9rZS13aWR0aDoxLjA7Ii8+PC9nPjwhLS1saW5rIG1nciB0byBHZW5lcmF0ZSBSZXBvcnRzLS0+PGcgaWQ9ImxpbmtfbWdyX0dlbmVyYXRlIFJlcG9ydHMiPjxwYXRoIGQ9Ik0zODIuOTQsNTEyLjIyIEM0MTkuMyw1MDUuNzIgNDgzLjY0MzcsNDk0LjIxNjUgNTM0LjI5MzcsNDg1LjE1NjUgIiBmaWxsPSJub25lIiBpZD0ibWdyLXRvLUdlbmVyYXRlIFJlcG9ydHMiIHN0eWxlPSJzdHJva2U6IzE4MTgxODtzdHJva2Utd2lkdGg6MS4wOyIvPjxwb2x5Z29uIGZpbGw9IiMxODE4MTgiIHBvaW50cz0iNTQwLjIsNDg0LjEsNTMwLjYzNjMsNDgxLjc0NzIsNTM1LjI3ODEsNDg0Ljk4MDQsNTMyLjA0NDksNDg5LjYyMjIsNTQwLjIsNDg0LjEiIHN0eWxlPSJzdHJva2U6IzE4MTgxODtzdHJva2Utd2lkdGg6MS4wOyIvPjwvZz48IS0tbGluayBtZ3IgdG8gQXBwcm92ZSBUcmFuc2FjdGlvbnMtLT48ZyBpZD0ibGlua19tZ3JfQXBwcm92ZSBUcmFuc2FjdGlvbnMiPjxwYXRoIGQ9Ik0zODIuNiw1MTkuMDcgQzQzNy45OSw1MjQuNDIgNTgwLjI4LDUzNC4yNCA2OTUsNTA4LjUgQzc0MS44NSw0OTcuOTkgNzg2LjU2MzgsNDc2LjMwMzUgODE3Ljk1MzgsNDU5LjAyMzUgIiBmaWxsPSJub25lIiBpZD0ibWdyLXRvLUFwcHJvdmUgVHJhbnNhY3Rpb25zIiBzdHlsZT0ic3Ryb2tlOiMxODE4MTg7c3Ryb2tlLXdpZHRoOjEuMDsiLz48cG9seWdvbiBmaWxsPSIjMTgxODE4IiBwb2ludHM9IjgyMy4yMSw0NTYuMTMsODEzLjM5NjcsNDU2Ljk2NjEsODE4LjgyOTgsNDU4LjU0MTMsODE3LjI1NDcsNDYzLjk3NDQsODIzLjIxLDQ1Ni4xMyIgc3R5bGU9InN0cm9rZTojMTgxODE4O3N0cm9rZS13aWR0aDoxLjA7Ii8+PC9nPjwhLS1saW5rIGN1c3QgdG8gVmlldyBBY2NvdW50IERldGFpbHMtLT48ZyBpZD0ibGlua19jdXN0X1ZpZXcgQWNjb3VudCBEZXRhaWxzIj48cGF0aCBkPSJNMTM3LjQxLDE2NS4zMyBDMTcyLjc0LDE2MC4wNSAyMjkuMDA2LDE1MS42Mzc3IDI3OC4yMDYsMTQ0LjI3NzcgIiBmaWxsPSJub25lIiBpZD0iY3VzdC10by1WaWV3IEFjY291bnQgRGV0YWlscyIgc3R5bGU9InN0cm9rZTojMTgxODE4O3N0cm9rZS13aWR0aDoxLjA7Ii8+PHBvbHlnb24gZmlsbD0iIzE4MTgxOCIgcG9pbnRzPSIyODQuMTQsMTQzLjM5LDI3NC42NDczLDE0MC43NjU1LDI3OS4xOTUsMTQ0LjEyOTcsMjc1LjgzMDgsMTQ4LjY3NzUsMjg0LjE0LDE0My4zOSIgc3R5bGU9InN0cm9rZTojMTgxODE4O3N0cm9rZS13aWR0aDoxLjA7Ii8+PC9nPjwhLS1saW5rIFZpZXcgQWNjb3VudCBEZXRhaWxzIHRvIFZpZXcgQWNjb3VudCBCYWxhbmNlLS0+PGcgaWQ9ImxpbmtfVmlldyBBY2NvdW50IERldGFpbHNfVmlldyBBY2NvdW50IEJhbGFuY2UiPjxwYXRoIGQ9Ik00NDQuMTMsMTI4LjI1IEM0NjYuOTcsMTI3LjExIDQ4NS42NTc1LDEyNi4xNzkyIDUwOC40ODc1LDEyNS4wMzkyICIgZmlsbD0ibm9uZSIgaWQ9IlZpZXcgQWNjb3VudCBEZXRhaWxzLXRvLVZpZXcgQWNjb3VudCBCYWxhbmNlIiBzdHlsZT0ic3Ryb2tlOiMxODE4MTg7c3Ryb2tlLXdpZHRoOjEuMDsiLz48cG9seWdvbiBmaWxsPSIjMTgxODE4IiBwb2ludHM9IjUxNC40OCwxMjQuNzQsNTA1LjI5MTcsMTIxLjE5MzgsNTA5LjQ4NjIsMTI0Ljk4OTQsNTA1LjY5MDcsMTI5LjE4MzksNTE0LjQ4LDEyNC43NCIgc3R5bGU9InN0cm9rZTojMTgxODE4O3N0cm9rZS13aWR0aDoxLjA7Ii8+PC9nPjwhLS1saW5rIFZpZXcgQWNjb3VudCBEZXRhaWxzIHRvIFRyYW5zZmVyIEZ1bmRzLS0+PGcgaWQ9ImxpbmtfVmlldyBBY2NvdW50IERldGFpbHNfVHJhbnNmZXIgRnVuZHMiPjxwYXRoIGQ9Ik0zODEuMDksMTUxLjg4IEM0MDQuNjQsMTcxLjY0IDQ0My43MiwyMDEuOTUgNDgyLDIyMC41IEM1MDIuNzMsMjMwLjU1IDUyMS4xOTE3LDIzNi42ODU2IDU0Mi4yNzE3LDI0Mi4xNDU2ICIgZmlsbD0ibm9uZSIgaWQ9IlZpZXcgQWNjb3VudCBEZXRhaWxzLXRvLVRyYW5zZmVyIEZ1bmRzIiBzdHlsZT0ic3Ryb2tlOiMxODE4MTg7c3Ryb2tlLXdpZHRoOjEuMDsiLz48cG9seWdvbiBmaWxsPSIjMTgxODE4IiBwb2ludHM9IjU0OC4wOCwyNDMuNjUsNTQwLjM3MDUsMjM3LjUyMTEsNTQzLjIzOTcsMjQyLjM5NjMsNTM4LjM2NDYsMjQ1LjI2NTYsNTQ4LjA4LDI0My42NSIgc3R5bGU9InN0cm9rZTojMTgxODE4O3N0cm9rZS13aWR0aDoxLjA7Ii8+PC9nPjwhLS1saW5rIFZpZXcgQWNjb3VudCBEZXRhaWxzIHRvIFBheSBCaWxscy0tPjxnIGlkPSJsaW5rX1ZpZXcgQWNjb3VudCBEZXRhaWxzX1BheSBCaWxscyI+PHBhdGggZD0iTTQxOS42OSwxNDYuODggQzQ2My42NiwxNTcuMzEgNTE2LjAxMTcsMTY5LjcxNjMgNTU0LjExMTcsMTc4Ljc0NjMgIiBmaWxsPSJub25lIiBpZD0iVmlldyBBY2NvdW50IERldGFpbHMtdG8tUGF5IEJpbGxzIiBzdHlsZT0ic3Ryb2tlOiMxODE4MTg7c3Ryb2tlLXdpZHRoOjEuMDsiLz48cG9seWdvbiBmaWxsPSIjMTgxODE4IiBwb2ludHM9IjU1OS45NSwxODAuMTMsNTUyLjExNTEsMTc0LjE2MjMsNTU1LjA4NDgsMTc4Ljk3NjksNTUwLjI3MDEsMTgxLjk0NjYsNTU5Ljk1LDE4MC4xMyIgc3R5bGU9InN0cm9rZTojMTgxODE4O3N0cm9rZS13aWR0aDoxLjA7Ii8+PC9nPjwhLS1saW5rIFZpZXcgQWNjb3VudCBCYWxhbmNlIHRvIFZpZXcgVHJhbnNhY3Rpb24gSGlzdG9yeS0tPjxnIGlkPSJsaW5rX1ZpZXcgQWNjb3VudCBCYWxhbmNlX1ZpZXcgVHJhbnNhY3Rpb24gSGlzdG9yeSI+PHBhdGggZD0iTTY0OCwxMDMuNjMgQzY5MS41OSw4Ny44IDc1MS4wNTk4LDY2LjIxNjUgNzk2LjU4OTgsNDkuNjk2NSAiIGZpbGw9Im5vbmUiIGlkPSJWaWV3IEFjY291bnQgQmFsYW5jZS10by1WaWV3IFRyYW5zYWN0aW9uIEhpc3RvcnkiIHN0eWxlPSJzdHJva2U6IzE4MTgxODtzdHJva2Utd2lkdGg6MS4wOyIvPjxwb2x5Z29uIGZpbGw9IiMxODE4MTgiIHBvaW50cz0iODAyLjIzLDQ3LjY1LDc5Mi40MDU0LDQ2Ljk1OTYsNzk3LjUyOTgsNDkuMzU1NCw3OTUuMTM0LDU0LjQ3OTksODAyLjIzLDQ3LjY1IiBzdHlsZT0ic3Ryb2tlOiMxODE4MTg7c3Ryb2tlLXdpZHRoOjEuMDsiLz48L2c+PCEtLWxpbmsgVHJhbnNmZXIgRnVuZHMgdG8gVmlldyBUcmFuc2FjdGlvbiBIaXN0b3J5LS0+PGcgaWQ9ImxpbmtfVHJhbnNmZXIgRnVuZHNfVmlldyBUcmFuc2FjdGlvbiBIaXN0b3J5Ij48cGF0aCBkPSJNNjUzLjY1LDI0My43MiBDNjY4LjM5LDIzOC42NCA2ODMuNTIsMjMxLjI0IDY5NSwyMjAuNSBDNzQzLjI1LDE3NS4zNyA3MTAuNTYsMTMzLjM4IDc1NSw4NC41IEM3NjguOTIsNjkuMTkgNzgyLjY4NDksNTkuNzg2MSA4MDAuNDc0OSw1MC43OTYxICIgZmlsbD0ibm9uZSIgaWQ9IlRyYW5zZmVyIEZ1bmRzLXRvLVZpZXcgVHJhbnNhY3Rpb24gSGlzdG9yeSIgc3R5bGU9InN0cm9rZTojMTgxODE4O3N0cm9rZS13aWR0aDoxLjA7Ii8+PHBvbHlnb24gZmlsbD0iIzE4MTgxOCIgcG9pbnRzPSI4MDUuODMsNDguMDksNzk1Ljk5MzMsNDguNTc5Miw4MDEuMzY3NCw1MC4zNDUxLDc5OS42MDE1LDU1LjcxOTMsODA1LjgzLDQ4LjA5IiBzdHlsZT0ic3Ryb2tlOiMxODE4MTg7c3Ryb2tlLXdpZHRoOjEuMDsiLz48L2c+PCEtLWxpbmsgRGVwb3NpdC9XaXRoZHJhdyBGdW5kcyB0byBWaWV3IFRyYW5zYWN0aW9uIEhpc3RvcnktLT48ZyBpZD0ibGlua19EZXBvc2l0L1dpdGhkcmF3IEZ1bmRzX1ZpZXcgVHJhbnNhY3Rpb24gSGlzdG9yeSI+PHBhdGggZD0iTTY2Mi45MSwzMTEuMDkgQzY3NC44MywzMDUuNTQgNjg2LjMxLDI5OC4xOSA2OTUsMjg4LjUgQzc1OC4wOCwyMTguMTMgNjk2LjA4LDE1OC4zOSA3NTUsODQuNSBDNzY3LjU5LDY4LjcxIDc4MC41NjAyLDU5LjMzNjcgNzk4LjA5MDIsNTAuNTE2NyAiIGZpbGw9Im5vbmUiIGlkPSJEZXBvc2l0L1dpdGhkcmF3IEZ1bmRzLXRvLVZpZXcgVHJhbnNhY3Rpb24gSGlzdG9yeSIgc3R5bGU9InN0cm9rZTojMTgxODE4O3N0cm9rZS13aWR0aDoxLjA7Ii8+PHBvbHlnb24gZmlsbD0iIzE4MTgxOCIgcG9pbnRzPSI4MDMuNDUsNDcuODIsNzkzLjYxMjUsNDguMjkxOSw3OTguOTgzNSw1MC4wNjczLDc5Ny4yMDgxLDU1LjQzODMsODAzLjQ1LDQ3LjgyIiBzdHlsZT0ic3Ryb2tlOiMxODE4MTg7c3Ryb2tlLXdpZHRoOjEuMDsiLz48L2c+PCEtLWxpbmsgVmlldyBUcmFuc2FjdGlvbiBIaXN0b3J5IHRvIEdlbmVyYXRlIFJlcG9ydHMtLT48ZyBpZD0ibGlua19WaWV3IFRyYW5zYWN0aW9uIEhpc3RvcnlfR2VuZXJhdGUgUmVwb3J0cyI+PHBhdGggZD0iTTgwMS4zNyw0Ny41NiBDNzg0LjA2LDU2LjI2IDc2Ni40MSw2OC4zMiA3NTUsODQuNSBDNjYzLjA1LDIxNC45MiA3OTYuNjEsMzE1LjQ1IDY5NSw0MzguNSBDNjg1Ljg0LDQ0OS41OSA2NzguMzg5MSw0NTUuMDEzNiA2NjQuOTM5MSw0NjAuMTkzNiAiIGZpbGw9Im5vbmUiIGlkPSJWaWV3IFRyYW5zYWN0aW9uIEhpc3RvcnktdG8tR2VuZXJhdGUgUmVwb3J0cyIgc3R5bGU9InN0cm9rZTojMTgxODE4O3N0cm9rZS13aWR0aDoxLjA7Ii8+PHBvbHlnb24gZmlsbD0iIzE4MTgxOCIgcG9pbnRzPSI2NTkuMzQsNDYyLjM1LDY2OS4xNzYzLDQ2Mi44NDgyLDY2NC4wMDU5LDQ2MC41NTMsNjY2LjMwMTEsNDU1LjM4MjcsNjU5LjM0LDQ2Mi4zNSIgc3R5bGU9InN0cm9rZTojMTgxODE4O3N0cm9rZS13aWR0aDoxLjA7Ii8+PC9nPjwhLS1saW5rIE9wZW4vQ2xvc2UgQWNjb3VudCB0byBBcHByb3ZlIFRyYW5zYWN0aW9ucy0tPjxnIGlkPSJsaW5rX09wZW4vQ2xvc2UgQWNjb3VudF9BcHByb3ZlIFRyYW5zYWN0aW9ucyI+PHBhdGggZD0iTTY3MC40NCw0MTIuMDIgQzcwNC42LDQxNi43MyA3MzkuOTQ2Myw0MjEuNjE5OSA3NzQuODA2Myw0MjYuNDI5OSAiIGZpbGw9Im5vbmUiIGlkPSJPcGVuL0Nsb3NlIEFjY291bnQtdG8tQXBwcm92ZSBUcmFuc2FjdGlvbnMiIHN0eWxlPSJzdHJva2U6IzE4MTgxODtzdHJva2Utd2lkdGg6MS4wOyIvPjxwb2x5Z29uIGZpbGw9IiMxODE4MTgiIHBvaW50cz0iNzgwLjc1LDQyNy4yNSw3NzIuMzgxMiw0MjIuMDU3NCw3NzUuNzk2OSw0MjYuNTY2Niw3NzEuMjg3Nyw0MjkuOTgyMyw3ODAuNzUsNDI3LjI1IiBzdHlsZT0ic3Ryb2tlOiMxODE4MTg7c3Ryb2tlLXdpZHRoOjEuMDsiLz48L2c+PCEtLVNSQz1bYkxGMVJpOG0zQnR0QW9uRXNtN24xdkNlUURqYnNaSkdUaFEyQUg1ZktaYTZMNHR4enVLNGpYUlFlYWF6SEJSVml6LXBRc1dqODB2TzVuazFiTVBJZWZ0REs4YlpjRXN5azk4T3E4Q0F4ckR1YkFGVG1mQUM4SHVUU25BVmYtbUJNWW1JZlltdW91d0tRMGozMlFUajBPbFEydktaLUNlV3lpOXVfMDF0N3ZlRUM1TkF4UW4wWldRamVsak1uUEJILWROV1ZqcFBiTV9kdGgyNk4xaUptLTVCQ3dOU2QyaGRqS20tak1uTVo4U19WQkZnakk4eGNIZGR3SnA1WUloOEkxTEZQOGJIMkR1MzhLamEtNHJFZ3VoVGRZMEVZVDc2S0YzVENrMmlSYTZ5cnVnSTB4dDJFX0dzUFJRZjZzcWx3RmxMX3NsY2pEVUloaVJseWdyRGFVb0Fjc3lYaF9xQ2s5dzNjOUVXRmloazNXLVRxMTNZcWtBWHNlUnRNTlVoblhKRFZKcGh5MXpuN1RXbHNqc2l4emRUSkxubGdrLUdpd3VyM1hwczNtMDBdLS0+PC9nPjwvc3ZnPg==;" vertex="1" parent="1">
            <mxGeometry x="660" y="650" width="1180" height="684.77" as="geometry" />
          </mxCell>
        </UserObject>
      </root>
    </mxGraphModel>
  </diagram>
</mxfile>
